<svg xmlns="http://www.w3.org/2000/svg" viewBox="0 0 425.63 355.36"><defs><style>.cls-1{fill:#fff;}</style></defs><g id="Layer_2" data-name="Layer 2"><g id="Layer_2-2" data-name="Layer 2"><path class="cls-1" d="M224.43,337.88c.29,0,.1-.41.13-.49C224.12,337.57,224.46,338,224.43,337.88Z" transform="translate(-1.63 -0.01)"/><polygon class="cls-1" points="218.28 339.67 218.33 339.48 217.71 340.02 218.28 339.67"/><path class="cls-1" d="M215.49,340.43c.53.64,1.58-.39,2.41-.27l.16.14.25-.63A11.07,11.07,0,0,1,215.49,340.43Z" transform="translate(-1.63 -0.01)"/><path class="cls-1" d="M212.88,339.29c.19.25-.47.32.56,0l-.11,0Z" transform="translate(-1.63 -0.01)"/><path class="cls-1" d="M213.33,339.23c.46-.1-.34-.18,0,0Z" transform="translate(-1.63 -0.01)"/><path class="cls-1" d="M211.21,339.73l.57-.34c-.15-.14-.7-.09-.52-.24C210.65,339.38,210.81,339.52,211.21,339.73Z" transform="translate(-1.63 -0.01)"/><path class="cls-1" d="M210.71,340.34l.3-.16C210.94,340.12,210.85,340.11,210.71,340.34Z" transform="translate(-1.63 -0.01)"/><path class="cls-1" d="M211.65,339.86l-.64.32c.1.1.15.33.29-.12C211.28,340.27,211.38,340.05,211.65,339.86Z" transform="translate(-1.63 -0.01)"/><path class="cls-1" d="M212.05,339.91c.36.1.82.12.25.46C213.46,340.08,213.2,339.62,212.05,339.91Z" transform="translate(-1.63 -0.01)"/><path class="cls-1" d="M215.38,341.19l.5.13.35-.3C216.06,341.17,215.31,341,215.38,341.19Z" transform="translate(-1.63 -0.01)"/><path class="cls-1" d="M207.33,340c0,.15.26.37.34.55l.43-.24C207.85,340.2,207.39,340.17,207.33,340Z" transform="translate(-1.63 -0.01)"/><path class="cls-1" d="M207.67,340.51l-.64.36C207.64,340.81,207.73,340.67,207.67,340.51Z" transform="translate(-1.63 -0.01)"/><polygon class="cls-1" points="209.09 341.13 210.12 340.41 208.88 341.17 209.09 341.13"/><polygon class="cls-1" points="203.1 340.31 203.44 339.9 202.83 340.53 203.1 340.31"/><path class="cls-1" d="M203,340.63c.24-.33-.46-.43-.18-.65a3.14,3.14,0,0,0-1.16.69A1.78,1.78,0,0,1,203,340.63Z" transform="translate(-1.63 -0.01)"/><path class="cls-1" d="M201.13,341.08a3.72,3.72,0,0,0,.55-.41A1.88,1.88,0,0,0,201.13,341.08Z" transform="translate(-1.63 -0.01)"/><path class="cls-1" d="M205.86,341a.75.75,0,0,0-.6-.35l.33.38Z" transform="translate(-1.63 -0.01)"/><path class="cls-1" d="M205.6,341h0l-.58.06Z" transform="translate(-1.63 -0.01)"/><path class="cls-1" d="M205.93,341h-.07S205.91,341,205.93,341Z" transform="translate(-1.63 -0.01)"/><path class="cls-1" d="M208.88,341c-.37.3-1.16.68-.3.92C208.82,341.61,208.33,341.48,208.88,341Z" transform="translate(-1.63 -0.01)"/><path class="cls-1" d="M206.34,341.44h.73c0-.11-.18-.26,0-.4Z" transform="translate(-1.63 -0.01)"/><polygon class="cls-1" points="204.38 341.61 204.71 341.43 204.44 341.43 204.38 341.61"/><path class="cls-1" d="M202.42,341.3a2.41,2.41,0,0,1-1,.38,6.68,6.68,0,0,0,1.27-.05C202.72,341.49,202.86,341.23,202.42,341.3Z" transform="translate(-1.63 -0.01)"/><path class="cls-1" d="M204,341.2l-.06,0S204,341.27,204,341.2Z" transform="translate(-1.63 -0.01)"/><polygon class="cls-1" points="195.98 342.19 196.05 342.26 196.06 342.18 195.98 342.19"/><path class="cls-1" d="M202.76,341.7a.7.7,0,0,0,.65-.25,4.1,4.1,0,0,1-.73.18C202.66,341.7,202.66,341.74,202.76,341.7Z" transform="translate(-1.63 -0.01)"/><path class="cls-1" d="M200.09,341.42a3.41,3.41,0,0,0,.57.16C200.49,341.47,200.14,341.31,200.09,341.42Z" transform="translate(-1.63 -0.01)"/><path class="cls-1" d="M203.78,341.13l.05,0C203.71,341,203.73,341.08,203.78,341.13Z" transform="translate(-1.63 -0.01)"/><path class="cls-1" d="M203.78,341.13a1.94,1.94,0,0,0-.37.32,3.26,3.26,0,0,0,.5-.21A.69.69,0,0,1,203.78,341.13Z" transform="translate(-1.63 -0.01)"/><path class="cls-1" d="M196.82,345.07c0-.4.77-.87,1.54-.54.66-.39,0-1.62-.68-2.26,0,.17,0,.33-.66.66.28.18,1.66.29,1.1.72-.92.33-.8,0-1.29-.18.46.44-1.11.87-.81,1.56l.8-.36C196.85,344.78,196.57,345,196.82,345.07Z" transform="translate(-1.63 -0.01)"/><path class="cls-1" d="M199.05,342.12l.29-.09a2.58,2.58,0,0,1-1.09-.39c-.46.26-.55.42-.56.55l1.45-.14Z" transform="translate(-1.63 -0.01)"/><path class="cls-1" d="M200.66,341.85c-.17.46-.85.74-.36,1.14.86-.15.56-.44,1-.7-1.38.3.37-.29-.67-.39a3.32,3.32,0,0,1,.73-.22,5.9,5.9,0,0,1-.75-.1l0,0h0c.06,0,.09.07,0,.05l0,0a.53.53,0,0,1,0,.17c-.42,0-.08-.11,0-.17s0-.05,0-.07h0l-1.36.43A5.11,5.11,0,0,0,200.66,341.85Z" transform="translate(-1.63 -0.01)"/><path class="cls-1" d="M208,343a.11.11,0,0,1-.06-.1C207.83,343,207.8,343,208,343Z" transform="translate(-1.63 -0.01)"/><path class="cls-1" d="M207.36,342.8a.6.6,0,0,1,.49-.26c.31.09,0,.21.07.34.18-.14.65-.41,0-.52l-.09.07c-.58-.06-1.39-.49-1.3-.56A3,3,0,0,0,207.36,342.8Z" transform="translate(-1.63 -0.01)"/><path class="cls-1" d="M204,342.45l-1.13.38.64.28-.06-.21C204.11,342.89,203.92,342.63,204,342.45Z" transform="translate(-1.63 -0.01)"/><polygon class="cls-1" points="195.82 341.99 195.91 341.52 195.33 342.25 195.82 341.99"/><polygon class="cls-1" points="194.32 342.24 194.32 341.84 193.96 342.13 194.32 342.24"/><path class="cls-1" d="M110.07,351.65l-.35.09A2.13,2.13,0,0,0,110.07,351.65Z" transform="translate(-1.63 -0.01)"/><path class="cls-1" d="M112.59,351.77l.07-.19C112.54,351.68,112.49,351.76,112.59,351.77Z" transform="translate(-1.63 -0.01)"/><path class="cls-1" d="M158.73,346c-.52-.33-1.12-.87-1-.43l.18.42A1.42,1.42,0,0,1,158.73,346Z" transform="translate(-1.63 -0.01)"/><path class="cls-1" d="M133.19,349.66l.15.13.34-.41Z" transform="translate(-1.63 -0.01)"/><path class="cls-1" d="M132.86,351.46l-.67-.27A2.3,2.3,0,0,0,132.86,351.46Z" transform="translate(-1.63 -0.01)"/><path class="cls-1" d="M96.28,351.22l-.44.41C96.47,351.68,96.21,351.44,96.28,351.22Z" transform="translate(-1.63 -0.01)"/><path class="cls-1" d="M180.47,344.24a3.7,3.7,0,0,0-1.1-.14C179.91,344.3,180.37,344.62,180.47,344.24Z" transform="translate(-1.63 -0.01)"/><path class="cls-1" d="M111.25,347.1c-.22.07-.31.15-.31.25C111.16,347.28,111.29,347.21,111.25,347.1Z" transform="translate(-1.63 -0.01)"/><path class="cls-1" d="M178.12,344.22a2.25,2.25,0,0,0,.24.08,3.42,3.42,0,0,1,1-.2A1.17,1.17,0,0,0,178.12,344.22Z" transform="translate(-1.63 -0.01)"/><path class="cls-1" d="M47.18,341.05l-.09-.09C47.06,341,47.11,341,47.18,341.05Z" transform="translate(-1.63 -0.01)"/><path class="cls-1" d="M35.64,331.3a4.5,4.5,0,0,1,.53.24A1.46,1.46,0,0,0,35.64,331.3Z" transform="translate(-1.63 -0.01)"/><path class="cls-1" d="M189.84,342.83c.32-.07,0-.05,0,0Z" transform="translate(-1.63 -0.01)"/><path class="cls-1" d="M191.61,344.35a.27.27,0,0,0-.1.22A.3.3,0,0,1,191.61,344.35Z" transform="translate(-1.63 -0.01)"/><path class="cls-1" d="M175.18,347.22h0C175.25,347.3,175.24,347.29,175.18,347.22Z" transform="translate(-1.63 -0.01)"/><path class="cls-1" d="M190.35,343a1.83,1.83,0,0,0-.43-.08A2,2,0,0,0,190.35,343Z" transform="translate(-1.63 -0.01)"/><path class="cls-1" d="M190.26,342.77h.28C190.58,342.7,190.53,342.66,190.26,342.77Z" transform="translate(-1.63 -0.01)"/><path class="cls-1" d="M189.4,342.91a2.29,2.29,0,0,1,.52,0c-.06,0-.09,0-.08-.06Z" transform="translate(-1.63 -0.01)"/><path class="cls-1" d="M73.47,346.7a.13.13,0,0,1-.06-.05C73.05,346.77,73.2,346.77,73.47,346.7Z" transform="translate(-1.63 -0.01)"/><path class="cls-1" d="M150.57,351l0,0h-.05Z" transform="translate(-1.63 -0.01)"/><path class="cls-1" d="M149.42,351.38c.47-.56.75-.51,1.14-.41l-.45-1.23Z" transform="translate(-1.63 -0.01)"/><path class="cls-1" d="M104,351.46l.8.43c-1,.59-1.74.33-1,.92.2-1.35,3.22,0,3.41-1.32l.53.31c-.16,0-.19.06-.34,0,1,.7.83-.94,2.18-.68.47.13.79.34.46.49l1.07-.28c.31,0,.22.27-.08.23l1.61-.06v0a6.25,6.25,0,0,1,1-.65c.41.2-.21.14-.11.31l.9-.31c.36.37-.39.69-1,.62.79,1.38.75-.32,2.53.52l-.85.15c.52.78,1.19.52,2.13,1-.22-.26-1.88-1.26-.9-1.57a1.32,1.32,0,0,0,1.16-.09c0,.48.5.38,1.14.37l-.06.64c.7-.17.65-.49,1.06-.78.77.07.92.57,1.1,1,1.23.11-.84-.8.62-.91a5.12,5.12,0,0,0,3-.38c.72.23-.12.39.13.58l.64-.51c.16,0,.11.17.08.25.53-.2,0-.64.89-.81.22-.7,1.72,1.05,2.76.23.26.18-.12.39,0,.64a8.46,8.46,0,0,0,2.38-1.12l1,.41c-.74-.47.19-1.05,1-1.53a7.19,7.19,0,0,0-.63-.52l1.29-.36c.16.1,0,.33-.17.6l.23-.16c.47.23.24.6-.09,1l-.48-.39c-.31.4-.61.83-.54,1.2a1,1,0,0,1,.43-.17c-.08.1-.14.2-.1.26s.18-.08.39-.24l.31.71.07-.29,1.72.43c1.21-.75,2.25-1.84,4.18-2.19-.47.54-.08.86-.09,1.48-.55-.64-1.49.32-2.51.21.53.06.42.36.29.46l1.78-.64c0,.5.4.36.87.56-.38-1,1.32-.7,2-1,.06.33-.11.68-1,.62,1,.73,1.23-1.21,2.22-.59-.22,0-.34,0-.42.14.5-.31,1.75-.14,1.47.17h-.22c1.45.06,4.4-.19,4.57-1.05a5.76,5.76,0,0,1-.22,1.21l2.43-3c-.19.74.77,2.44-.4,2.9a2,2,0,0,0,1.49-.11c-.24-.09-.64-1-.32-1.1.92.75.63.39,1.75,1-.36-.13,0-1.3.52-1.3-.08.18.11,1.13-.08,1.26l1.31-1.21c-.33.23,0,1,.33,1.26-.16-.21,1.19-.05,1.56-.19l-.61-.22c1.57.07,1.44-1.66,3-1.72-.17.25-.37,1.46.43,1.55.32-.6,1.4-2.88,2.72-3.43l.29.31,1-.45a21.93,21.93,0,0,1-3.24,3.65c.61.22.19.38,1.07.28.33.29-.45.5-.7.54l2.05.05c-.14-.67,1.51-.79,1.39-1.34l-2.16.86c-.14-.67,1.13-2,2.58-2,.39.24-.18,1.22-.13,1.44a2.1,2.1,0,0,1,1.47-.39l-.58.4c.83.2,1.24-1,2.25-.44.34,0,1.07.78,1.09.38a5.42,5.42,0,0,1-.6-3.68,10.93,10.93,0,0,1,2.21.93c.6.55-.69,1.5-.18,2,0-.18.29-.44.41-.52.36.13-.1.58.65.43.07-.69,1.55-.07.31-.6.72-.26.8.07,1.67,0-.32-.41.64-1.57,1.36-1.84,0,.18.16.39.25.48,1.52-.08,2.36.15,3.78,0,.14.15.85.29.59.61a1.44,1.44,0,0,1,.78-.46c.91.5-1,.2-.24.84,0-.4,1.07-.67,1.66-1-.25-.59-1.44,0-2,.35-.09-.84.9-1.84,2.33-2.39,1.15-.33.57.49.76.35,2.21-.09,1.71-1.67,3.6-1.26.78.44.15,1,.35,1.42-.93.31-1.5-.18-2.14-.08l.82.16a1.72,1.72,0,0,1-1.27.3c.67.42,3.73-.32,5.48-.09.28-.21.78-.46.5-.65l-.52.14c-.55-.37.93-.71.23-.83a3.89,3.89,0,0,1,2.47-.84l.27.58c-.05-.17-.71-.28-1-.06.39-.32,1.65.63,2-.23l-.76-.33c.69-.4,1.49-1.16,2.41-1.08-.48-.55-.2.1-.92-.52.66.8-2.29.25-1.29,1.06-.76-.73-1.17-.2-2.11-.8,0,.2.35.35-.42.34a.66.66,0,0,1-.14.2h-.05l0,0s0,0,0,0a.92.92,0,0,1,.42.26c-.32.51-1.51.64-1.89.92-.46,0,.16-.25-.11-.43l-.56.43c-.12-.44-1.27-.6-.25-1l-1,.09a2.65,2.65,0,0,0-1.81.05c-.46-.05-1.07.61-.73.22l-1.45.44,0-.11c-1.47.1-2.94,1.08-4.7.43a4.23,4.23,0,0,1-1.81.3l-.2-.37c-.62.2-1.94-.2-2.18.23-.77-1-3.09.06-4.22,0v.51a9.47,9.47,0,0,0-2.43.53l.1.44c-.79.44-2.14-.14-3.44,0,.08-.18.41-.16.65-.07-1.63-.9-3.22,1-4.68.34a1,1,0,0,1-.86.06.14.14,0,0,0,.09,0h-.15c-.16-.06-.32-.14-.5-.2a1.41,1.41,0,0,0,.43.21,6,6,0,0,0-1.08.25l-.2-.47-.09,0c-.41-.15-.3.25-.07.6a1.71,1.71,0,0,0-.51.32c-.38-.76-1.05.32-1.54-.48-.24.42-2,.43-2.17,1.29,0-.11-.14-.16.07-.18a1.72,1.72,0,0,0-1.3.13l-.22-.6-.94.88c-.62-.35-.87-.55-.31-1.05-1.39.79-1.14.32-2.33,1.1l0-.4c-.43,0-1.1.59-1.38.28-1-.7-4.82.12-7.34-.53.51,1.15-1.18-.49-1.25.41-.16-.27-.51-.41-.11-.66-1.27.3-1.92-.39-2.79.4-.15-.27.27-.41.13-.57-.1.06-.4.25-.53.09s.18-.23.38-.36c-1.3.06-1.42.91-1.5,1.71a1,1,0,0,0-1.46.22c-.24-.26-.62-.53.19-.63-.46,0-2.79-.35-2.83.29-.15-.17-.64,0-.76,0a16.68,16.68,0,0,0-2.12,0l.28.11c-.39.77-.83.16-1.64.25l0-.08c-1.85-.57-.8.26-2.63-.39l.1.48c-.19,1-1.62-.62-2.69-.23l.38.28c-.59.34-1.6-1.41-2.18-1.57-.12-.09.21-.14.38-.2-1.5-.65-.21.63-1.34.74-.2-.35.29-.86-.47-.94-.38-.28-2.25,1-3.27.36.22.26.44.53-.09.71-.82.07-2.15-1-2.91-.25-.1-.08-.14-.15-.14-.21-.62.18-2,.24-2.41.67-.49-1.68-3.89.61-3.79-.92-.63,0-1.26,0-1.9,0l.06-.15a2.36,2.36,0,0,0-2.11.47c-.27-.12-.05-.25,0-.33a3.89,3.89,0,0,0-3.48.26l-.11-.51c-.43.27-2.48-1-4.26-.6a.33.33,0,0,1,.21-.2c-2,.38-4.49-1.85-5.42-.13-.44.1-.88.18-1.33.27,1.64.37-.34.75.3,1.13-.67,0-1.62-.77-.8-.75l.11.11c.41-.89-2-.61-1.89-1.24a46.35,46.35,0,0,1-4.78-.89c-1.55-.4-3.07-.81-4.57-1.08l.22.78-1-.23c-.25-.21-.27-.62.47-.46-.32-.48-1.32.12-1.37.27-1.42-.54.73-.74.28-.83l-.62,0,.12.1c-.55.21-.66.52-1.55.29-.54-.26-.2-.5-.42-.58,0-.05-.06-.09-.34-.09l-1.3-.34.41.68c-.65.15-1.24-.29-.76.48-.69-1.19-4.86-1.37-5.32-1.87a5.13,5.13,0,0,1-2.7-.32c.22.18.21.85-.63.55.65-1.22-1.43-1-1.86-2.07.23.38-.39.27-1,.18s-1.12-.15-.77.43c-.67-.32.1-.5-.35-1-1.82,0-3.58-1.46-5.68-1.94-.09.15.17.53-.35.62l-.78-1.23c-.43-.06-.71.82-1.23,0,0,.18.13.44-.16.4-1.83-1.16-3.95-1.66-5.93-2.52a26.34,26.34,0,0,1-3-1.35,11.81,11.81,0,0,1-1.38-.87,10.17,10.17,0,0,1-1.2-1.17c.35.58,0,.43-.4.23.22.21-.2.39-.26.63l-1.27-1.43c-.61.43-1.72-.85-2.19-.39l.56.17c-1,.29.13,2-.42,2.74,1.16-.35,1.46,2.19,3.28,1.78.19.32-.38.15-.33.43.51-.2.92-.06,1.59.42l-.12.05c2.12.84,2.85,1.6,5.1,2.89v-.51a2.58,2.58,0,0,1,.73.66c.85-.41-1.42-.63-.58-1.14.29,1.22,3.61,1.38,3.68,2.59.79.3,0-.6.75-.3l.11.36.33-.29a.91.91,0,0,1,.57.94,2.17,2.17,0,0,0-.53-.09c.57.58,2,.6,2.15.78l-.71-.45c2.28.5,4.88,1.65,7.17,1.75l-.09-.27c1.73.12,1.24.6,3.09.9l-.08,0a2.56,2.56,0,0,1,1.42,0c-.53.14.73.72.06.84,1.89,0,1-.11,2.34-.61l.18.43a1.77,1.77,0,0,1,1.48-.26c-.82.14.44.69-.48.9,1.73,1.21,3-.19,3.63,1.15,1.09-.81-1.53-.9-1-1-.34-.42.88-.6,1.45-.37s.77,1.5,2.31,1.81c-.15,0-.18,0-.33,0,.53.37,1.19-.1,1.82.45.51-.55.91.19,1.17-.57l-1.44-.07c.84,0,1.75-.84,3-.17a2.1,2.1,0,0,1-.85.34c.34.3.77,0,1.13.29-.25.76-1.75-.13-2.72.32.35.4,1.73-.29,1.14.48.82-1,1.51.4,2.7-.24l-.15.45a2.12,2.12,0,0,1,.86-.14l-.66.51c.94-.37,1.57.74,2.43.59-1.71-.27-.29-.63-1-1.09,2.2-.28,1,1.46,3.42,1.56-.34,0-1.17-.45-.63-.6a3.44,3.44,0,0,1,1.24.7c1.58.12-.17-.51.54-.71.45.64.8-.13,1.51-.22l-.06.48c1.74.55.6-.93,2.16-.34l-.77.57.86-.06-.24.52a2.89,2.89,0,0,1,2.11.13c-.17-.36.22-.86,1-.79.51.34-.36.42.77.47-.28.27-.6.62-1,.13-.07.15-.29.27-.36.42.55.39,1.46.23,1.87.27a1,1,0,0,1-.43-.16l1.7-.49c.24.2,0,.33-.2.45a6.89,6.89,0,0,1,1.08-.21c-.17.38-.18.79-.89.9l1.6-.27c.09.18.75.55.54.67.84.32,2.18-.53,3.3-.15a.74.74,0,0,1,.44-.17c1.06.17,2,.72,3.29.28l.67.76c1-.08-.91-1,.77-1.09,1.19-.14.4.63.79.85.61-.29,1.67-1,2.72-.34A4.07,4.07,0,0,1,104,351.46Zm12.32.21c-.24.09-.73.39-.9.1C115.74,351.23,115.94,351.5,116.35,351.67Zm18.66-1.1c-.17.16-.45.09-.76-.09A1.3,1.3,0,0,1,135,350.57Zm51.36-6.93,0,0C185.8,343.54,186,343.59,186.37,343.64Zm1.11.08c.1-.08.09-.15,0-.21-.06.13-.3.17-.58.17C187,343.8,187.17,343.87,187.48,343.72Zm-116.8-.85.18.17C70.36,343.08,70.52,343,70.68,342.87Z" transform="translate(-1.63 -0.01)"/><path class="cls-1" d="M132.91,351.25a.54.54,0,0,1-.11-.26C132.71,351.08,132.71,351.17,132.91,351.25Z" transform="translate(-1.63 -0.01)"/><path class="cls-1" d="M96.36,351.15h0a.25.25,0,0,0,0,.08Z" transform="translate(-1.63 -0.01)"/><path class="cls-1" d="M171,349.52a1,1,0,0,1-.46-.21C170.53,349.43,170.64,349.52,171,349.52Z" transform="translate(-1.63 -0.01)"/><path class="cls-1" d="M193.13,342.21l-.68.21a1,1,0,0,1,.65.08C193.07,342.39,192.92,342.24,193.13,342.21Z" transform="translate(-1.63 -0.01)"/><path class="cls-1" d="M199.56,344.37c.09-.07.21,0,.31-.11l-.06-.21C199.38,344.12,199.1,344.34,199.56,344.37Z" transform="translate(-1.63 -0.01)"/><path class="cls-1" d="M194,343.71c.11.4.52.21,1,.07h-.08C195,343.21,194.47,343.46,194,343.71Z" transform="translate(-1.63 -0.01)"/><path class="cls-1" d="M195.09,343.75a1.76,1.76,0,0,1,.45-.07C195.57,343.45,195.35,343.66,195.09,343.75Z" transform="translate(-1.63 -0.01)"/><path class="cls-1" d="M188.83,343.29c.24.07.08-.54.23-.39C189.26,342.36,187.6,343.71,188.83,343.29Z" transform="translate(-1.63 -0.01)"/><polygon class="cls-1" points="192.91 344.98 192.68 344.5 192.45 344.94 192.91 344.98"/><path class="cls-1" d="M190.64,345.11l.8,0c0-.08.07-.14.19-.19C191.14,345,190.6,345,190.64,345.11Z" transform="translate(-1.63 -0.01)"/><path class="cls-1" d="M191.63,345a1.23,1.23,0,0,0,.61-.16A2.52,2.52,0,0,0,191.63,345Z" transform="translate(-1.63 -0.01)"/><polygon class="cls-1" points="191.87 345.26 191.62 345.19 191.07 345.23 191.87 345.26"/><path class="cls-1" d="M182.23,346l-.84.24c-.07.18.18.26.49.16S182.38,346.12,182.23,346Z" transform="translate(-1.63 -0.01)"/><path class="cls-1" d="M185,347.05c-.24-.07-.27-.18-.42-.33l.05.62Z" transform="translate(-1.63 -0.01)"/><path class="cls-1" d="M182.48,347.47c-.06.18-1.18.63-.1.47C182.44,347.76,183.29,347.53,182.48,347.47Z" transform="translate(-1.63 -0.01)"/><polygon class="cls-1" points="167.88 347.93 168.1 347.9 167.98 346.89 167.88 347.93"/><path class="cls-1" d="M158.29,351.24c1,.18.21-.64,1.15-.4.22-.26-.77-.19-.54-.42C158.3,350.72,158,350.59,158.29,351.24Z" transform="translate(-1.63 -0.01)"/><path class="cls-1" d="M158.9,350.42a1.52,1.52,0,0,0,.3-.17A1.13,1.13,0,0,0,158.9,350.42Z" transform="translate(-1.63 -0.01)"/><polygon class="cls-1" points="32.2 329.71 31.75 329.23 31.94 329.72 32.2 329.71"/><path class="cls-1" d="M32.38,329.81l.19-.63-.64.32C32.08,329.55,32.35,329.63,32.38,329.81Z" transform="translate(-1.63 -0.01)"/><path class="cls-1" d="M118.15,353l0-.16c-.1-.17-.25-.19-.56-.22Z" transform="translate(-1.63 -0.01)"/><polygon class="cls-1" points="107.58 352.23 107.74 352.25 107.48 351.65 107.58 352.23"/><path class="cls-1" d="M101.66,352.56c.3.05.67-.05,1,0C102,352.61,101.62,351.83,101.66,352.56Z" transform="translate(-1.63 -0.01)"/><path class="cls-1" d="M3,278.8c-.06,1,.37.63.44.78C3.33,277.93,2.84,278.84,3,278.8Z" transform="translate(-1.63 -0.01)"/><path class="cls-1" d="M3.61,262.35l.11.32c0-.82,0-1.65.07-2.47C3.7,260.91,3.67,261.63,3.61,262.35Z" transform="translate(-1.63 -0.01)"/><path class="cls-1" d="M8.1,247.63A8.56,8.56,0,0,0,6.52,251c-.43,1.51-.88,3.17-1.36,4.46l-.28.39.2,1.34A49,49,0,0,1,8.1,247.63Z" transform="translate(-1.63 -0.01)"/><path class="cls-1" d="M13.12,241.07c-.48.3.65-1.63-1,1.59.11-.15.15-.18.22-.27C12.49,242.1,12.72,241.72,13.12,241.07Z" transform="translate(-1.63 -0.01)"/><path class="cls-1" d="M12.34,242.39c-.72,1.42.69-.8,0,0Z" transform="translate(-1.63 -0.01)"/><path class="cls-1" d="M16.08,236.09c-.35.61-.65,1.24-1,1.87.36-.28,1.43-1.79,1.14-1.15C17.39,235,17,235.25,16.08,236.09Z" transform="translate(-1.63 -0.01)"/><path class="cls-1" d="M16.82,234.16l-.56,1C16.43,235,16.62,234.78,16.82,234.16Z" transform="translate(-1.63 -0.01)"/><path class="cls-1" d="M15.12,237.14c.35-.7.76-1.35,1.14-2-.27.18-.48.08-.55.91C15.66,235.76,15.52,236.22,15.12,237.14Z" transform="translate(-1.63 -0.01)"/><path class="cls-1" d="M14.32,238.18c-.78.89-1.66,2.16-.74.23-1,1.74-1.3,2.58-1.13,2.51a2.65,2.65,0,0,0,.62-.75Z" transform="translate(-1.63 -0.01)"/><path class="cls-1" d="M7.74,246.62c-.29.45-.56.93-.82,1.4l-.3,1.4C6.76,248.72,8,246.6,7.74,246.62Z" transform="translate(-1.63 -0.01)"/><path class="cls-1" d="M24.76,226.37c0-.2-.79.21-1,.18l-.94,1.25C23.39,227.28,24.52,226.27,24.76,226.37Z" transform="translate(-1.63 -0.01)"/><path class="cls-1" d="M23.72,226.55l1.49-1.82C23.69,226.17,23.5,226.52,23.72,226.55Z" transform="translate(-1.63 -0.01)"/><path class="cls-1" d="M16.4,233.38c-.59,1.17-1.23,2.29-1.77,3.48.32-.71.71-1.37,1.08-2.05s.73-1.37,1.14-2C16.7,233,16.54,233.18,16.4,233.38Z" transform="translate(-1.63 -0.01)"/><path class="cls-1" d="M31.39,220.49l-.79,1.11c.48-.63,1-1.28,1.49-1.89C31.85,220,31.61,220.22,31.39,220.49Z" transform="translate(-1.63 -0.01)"/><path class="cls-1" d="M36.08,216.9c-.63.81,1.37-.37.64.38a33.79,33.79,0,0,0,3.19-2.79A22.85,22.85,0,0,1,36.08,216.9Z" transform="translate(-1.63 -0.01)"/><path class="cls-1" d="M41.51,213.12c-.52.41-1,.87-1.6,1.37A13.79,13.79,0,0,0,41.51,213.12Z" transform="translate(-1.63 -0.01)"/><path class="cls-1" d="M28.21,222.1a4.45,4.45,0,0,0,1.69-.86l-1,.26C28.69,221.68,28.44,221.88,28.21,222.1Z" transform="translate(-1.63 -0.01)"/><path class="cls-1" d="M28.88,221.51h0l1.55-1.25Z" transform="translate(-1.63 -0.01)"/><path class="cls-1" d="M28,222.25l.18-.15A.19.19,0,0,0,28,222.25Z" transform="translate(-1.63 -0.01)"/><path class="cls-1" d="M20.62,228.85c.73-1.18,2.57-3.46.36-1.67C20.52,228.11,21.74,227.07,20.62,228.85Z" transform="translate(-1.63 -0.01)"/><path class="cls-1" d="M26.82,222.62c-.64.53-1.29,1-1.9,1.62.11,0,.54-.14.14.42C25.62,224,26.22,223.29,26.82,222.62Z" transform="translate(-1.63 -0.01)"/><polygon class="cls-1" points="26.02 221.68 25.19 222.6 25.91 222.01 26.02 221.68"/><path class="cls-1" d="M37.7,215.09A18.49,18.49,0,0,1,40.6,213a42.77,42.77,0,0,0-3.7,2.24C36.8,215.41,36.43,216,37.7,215.09Z" transform="translate(-1.63 -0.01)"/><path class="cls-1" d="M33.29,218.05l.18-.16C33.33,218,33.23,218,33.29,218.05Z" transform="translate(-1.63 -0.01)"/><path class="cls-1" d="M52.17,206.6l-.22,0a.31.31,0,0,1,0,.09Z" transform="translate(-1.63 -0.01)"/><path class="cls-1" d="M36.65,215.25a7.18,7.18,0,0,0-1.82,1.48c.64-.5,1.3-1,2.07-1.54C36.94,215.09,36.93,215.05,36.65,215.25Z" transform="translate(-1.63 -0.01)"/><path class="cls-1" d="M44.57,211.09c-.54.2-1.13.45-1.74.72A5.89,5.89,0,0,0,44.57,211.09Z" transform="translate(-1.63 -0.01)"/><path class="cls-1" d="M33.82,217.76l-.11.12C34,217.74,34,217.73,33.82,217.76Z" transform="translate(-1.63 -0.01)"/><path class="cls-1" d="M33.82,217.76a12,12,0,0,0,1-1,15.63,15.63,0,0,0-1.36,1.16A2.19,2.19,0,0,1,33.82,217.76Z" transform="translate(-1.63 -0.01)"/><path class="cls-1" d="M54.69,202.41c0,.45-2.5,2-4.92,2.7-2.06,1.36,0,1.8,2.18,1.52,0-.19-.08-.34,2.09-1.61-.9.14-5.23,2-3.49.71,2.9-1.65,2.53-1,4.07-1.55-1.47.1,3.59-2.38,2.64-2.75l-2.59,1.41C54.57,202.76,55.48,202.17,54.69,202.41Z" transform="translate(-1.63 -0.01)"/><path class="cls-1" d="M47.71,208.74l-.88.53a17.37,17.37,0,0,1,3.38-1.16c1.43-.93,1.68-1.22,1.73-1.39-1.51.73-3,1.44-4.52,2.24Z" transform="translate(-1.63 -0.01)"/><path class="cls-1" d="M42.82,211.51c.48-.76,2.53-2.15,1-1.8-2.62,1.52-1.66,1.37-3.1,2.46,4.09-2.62-1.06.92,2.06-.68-.79.54-1.49,1-2.17,1.46.77-.41,1.51-.8,2.23-1.14l-.11,0h0c-.21.06-.28.07-.06,0l.08-.06a.55.55,0,0,1,.11-.24c1.26-.62.24,0-.11.24,0,0,0,.07,0,.09h0c1.37-.86,2.7-1.77,4.11-2.58A38.38,38.38,0,0,0,42.82,211.51Z" transform="translate(-1.63 -0.01)"/><path class="cls-1" d="M22.11,224.65c.14-.08.16-.06.19,0C22.49,224.35,22.55,224.24,22.11,224.65Z" transform="translate(-1.63 -0.01)"/><path class="cls-1" d="M23.75,223.42a5.66,5.66,0,0,1-1.17,1.4c-.81.61-.14-.15-.28-.21-.43.57-1.47,2,.18.54l.21-.28a25.46,25.46,0,0,1,2.39-1.76c.73-.44,1.24-.69,1.13-.56A6.35,6.35,0,0,0,23.75,223.42Z" transform="translate(-1.63 -0.01)"/><path class="cls-1" d="M33,216.71c1.07-.84,2.12-1.7,3.2-2.52-.65.27-1.27.59-1.91.88l.21.13C32.57,216.47,33.14,216.4,33,216.71Z" transform="translate(-1.63 -0.01)"/><polygon class="cls-1" points="51.06 206.59 50.77 207.23 52.61 205.66 51.06 206.59"/><polygon class="cls-1" points="55.82 204.36 55.8 204.8 56.97 204.02 55.82 204.36"/><path class="cls-1" d="M353.5,156.77l1.13-.39C354.09,156.55,353.75,156.67,353.5,156.77Z" transform="translate(-1.63 -0.01)"/><path class="cls-1" d="M345,158.69l-.16.24C345.24,158.74,345.38,158.63,345,158.69Z" transform="translate(-1.63 -0.01)"/><path class="cls-1" d="M185,179.66c1.79.23,3.79.64,3.54.22l-.57-.39A16.58,16.58,0,0,1,185,179.66Z" transform="translate(-1.63 -0.01)"/><path class="cls-1" d="M274.49,170.5l-.52-.09-1.15.52Z" transform="translate(-1.63 -0.01)"/><path class="cls-1" d="M275.58,168.61l2.33.07C277.38,168.63,276.63,168.6,275.58,168.61Z" transform="translate(-1.63 -0.01)"/><path class="cls-1" d="M396.69,139l.88-1.13C395.82,139.1,396.7,138.75,396.69,139Z" transform="translate(-1.63 -0.01)"/><path class="cls-1" d="M109.34,189c1.51-.12,2.7-.29,3.75-.45C111.25,188.67,109.74,188.6,109.34,189Z" transform="translate(-1.63 -0.01)"/><path class="cls-1" d="M351.23,162.05c.71-.24,1-.4.95-.49C351.45,161.81,351.05,162,351.23,162.05Z" transform="translate(-1.63 -0.01)"/><path class="cls-1" d="M117.38,187.83c-.27,0-.53,0-.8,0-1.08.27-2.16.52-3.49.73A13.39,13.39,0,0,0,117.38,187.83Z" transform="translate(-1.63 -0.01)"/><path class="cls-1" d="M354.52,16.14a3.84,3.84,0,0,1-.36-.14C354.11,16.05,354.28,16.09,354.52,16.14Z" transform="translate(-1.63 -0.01)"/><path class="cls-1" d="M305.05,6.24c.5,0,1.32,0,2.09,0A15.19,15.19,0,0,0,305.05,6.24Z" transform="translate(-1.63 -0.01)"/><path class="cls-1" d="M77.42,197.22c-1.06.36-.16.1,0,0Z" transform="translate(-1.63 -0.01)"/><path class="cls-1" d="M71.69,197.27c.21-.12.36-.24.36-.34A.85.85,0,0,1,71.69,197.27Z" transform="translate(-1.63 -0.01)"/><path class="cls-1" d="M128.07,183.37h.1C127.83,183.32,127.89,183.33,128.07,183.37Z" transform="translate(-1.63 -0.01)"/><path class="cls-1" d="M75.75,197.54c.42-.08.89-.18,1.4-.31C76.92,197.27,76.5,197.36,75.75,197.54Z" transform="translate(-1.63 -0.01)"/><path class="cls-1" d="M76,197.67l-1,.25C75,198,75.1,198,76,197.67Z" transform="translate(-1.63 -0.01)"/><path class="cls-1" d="M78.9,196.74c-.61.19-1.19.35-1.75.49.22,0,.32,0,.27,0C77.73,197.12,78.17,197,78.9,196.74Z" transform="translate(-1.63 -0.01)"/><path class="cls-1" d="M421.18,71.26l0-.24C420.66,70,420.83,70.46,421.18,71.26Z" transform="translate(-1.63 -0.01)"/><path class="cls-1" d="M214.1,173l-.13,0h.17Z" transform="translate(-1.63 -0.01)"/><path class="cls-1" d="M218.14,172.37a8.81,8.81,0,0,1-4,.63l1.43,1.16Z" transform="translate(-1.63 -0.01)"/><path class="cls-1" d="M373.29,150.72l-2.79.56c3-1.69,5.33-2.39,2.7-2,.05.71-2.51,1.66-5.09,2.54s-5.21,1.68-5.2,2.4l-1.87.24c.52-.13.58-.23,1.09-.36-3.66.34-2.32,1.69-6.91,2.69-1.61.3-2.77.37-1.72,0-1.16.39-2.3.81-3.46,1.18-1,.21-.84-.08.19-.29-1.79.45-3.59.9-5.4,1.32l0,0c-.73.38-2.42,1.07-3.26,1.37-1.43.09.67-.28.28-.37l-3,.93c-1.3-.11,1.14-.93,3.23-1.31-3.08-.77-2.43.87-8.68,1.2l2.82-.69c-2-.41-4.15.26-7.47.34.81.14,6.68.06,3.45,1a15.62,15.62,0,0,0-3.91.79c-.1-.49-1.81-.06-4,.29l.05-.65c-2.32.54-2.09.84-3.43,1.33-2.64.32-3.26-.09-3.94-.41-4.23.47,3,.39-1.95,1.19a65.55,65.55,0,0,0-10.14,1.7c-2.49.07.38-.44-.52-.52l-2.13.76c-.53,0-.38-.12-.3-.21-1.82.4-.08.65-3,1.15-.71.79-6.06-.38-9.57.78-.91-.1.39-.44.09-.66-4.88,1-4.19.8-8.18,1.87l-3.49-.11c2.58.26-.61,1.11-3.42,1.82.93.16,1.71.29,2.24.34l-4.51.73c-.56-.06-.12-.31.6-.64l-.82.22c-1.64-.1-.83-.54.3-1l1.67.25c1.09-.47,2.1-1,1.83-1.35a9.66,9.66,0,0,1-1.47.3c.29-.13.46-.24.32-.29a4.21,4.21,0,0,0-1.35.35l-1.09-.62-.22.3-6,0c-4.19,1.05-7.81,2.39-14.54,3.17,1.63-.64.29-.87.34-1.5,1.89.52,5.21-.66,8.71-.79-1.83.07-1.45-.26-1-.4l-6.19,1.06c.1-.51-1.36-.28-3-.37,1.3.91-4.6,1-7.12,1.48-.18-.32.4-.71,3.51-.84-3.47-.51-4.34,1.48-7.74,1.07.76-.06,1.17,0,1.46-.23-1.75.43-6.09.49-5.09.13l.75-.06c-5,.22-15.29,1-16,1.94a3.26,3.26,0,0,1,.88-1.26L212.25,176c.74-.78-2.42-2.31,1.72-3a24.32,24.32,0,0,0-5.19.4c.82,0,2.11.91,1,1a47.53,47.53,0,0,0-6-.7c1.24.07,0,1.31-2,1.41.29-.19-.25-1.11.45-1.28l-4.73,1.47c1.19-.29.14-1-1-1.2.52.18-4.16.3-5.44.51l2.06.1c-5.44.25-5.24,2-10.63,2.38.64-.29,1.5-1.56-1.26-1.47a32.73,32.73,0,0,1-10,4.11l-.94-.24-3.61.72a102.48,102.48,0,0,1,11.83-4.5c-2.05-.08-.6-.34-3.64,0-1.1-.21,1.62-.61,2.51-.71l-7.11.44c.38.64-5.36,1.19-5,1.72l7.63-1.42c.37.64-4.28,2.3-9.3,2.68-1.3-.13.84-1.29.71-1.5a24.22,24.22,0,0,1-5.19.81l2.09-.58c-2.82,0-4.47,1.37-7.89,1.09-1.16.09-3.56-.47-3.71-.05,2,.55,2.61,2.87,1.42,3.58-.41,0-6.14,0-7.5-.23-2-.36,2.68-1.78,1-2.09,0,.19-1.07.55-1.5.68-1.23,0,.44-.63-2.19-.22-.36.72-5.37.66-1.17.73-2.56.54-2.76.22-5.78.67,1,.31-2.51,1.86-5.05,2.44.13-.19-.48-.33-.78-.39-5.26.73-8.13.89-13,1.74-.48-.08-2.88.15-1.93-.32a14.06,14.06,0,0,1-2.79.89c-3,0,3.35-.73,1-1-.11.43-3.8,1.26-5.88,1.95.77.46,5-.86,7.07-1.49.16.83-3.42,2.36-8.4,3.79-4,1-1.85-.16-2.52.1-7.58,1.52-6.09,2.85-12.43,3.8-2.59.12-.38-1-1-1.24,3.2-1,5.08-.92,7.28-1.46-.93.12-1.86.26-2.78.4A18.45,18.45,0,0,1,97,189.34,52.24,52.24,0,0,0,89.08,191c-3.64.91-7.71,2-10.64,2.68-1,.47-2.66,1.21-1.77,1.15.6-.22,1.19-.42,1.79-.62,1.78-.09-3.22,1.6-.88,1.1-1.16.52-2.38,1.11-3.73,1.67a32,32,0,0,1-4.55,1.61l-.83-.35a9.2,9.2,0,0,0,3.19-.91c-1.31.71-5.43,1-6.66,2.34.82-.17,1.65-.32,2.48-.46a63.8,63.8,0,0,1-7.89,3.89c1.54,0,.64-.34,2.95-.52-2.13-.16,7.47-2.8,4.26-2.58,2.42,0,3.83-1,6.88-1.28-.15-.16-1.13-.05,1.4-.76a3.46,3.46,0,0,1,.49-.34l.18,0-.15,0c.1-.06.11-.07,0,0a5.56,5.56,0,0,1-1.37.11c1.1-.84,5.1-2.08,6.4-2.69,1.53-.35-.56.41.32.37.64-.32,1.28-.63,1.93-.93.33.38,4.2-.39.73.85l3.19-.86A35,35,0,0,0,92.88,193c1.53-.29,3.72-1.4,2.48-.75,1.66-.47,3.33-1,5-1.42l.07.1c5-1,10.21-2.89,16.15-3.1a46.44,46.44,0,0,1,6.3-1.18l.62.29c2.17-.49,6.65-.63,7.54-1.17,2.52.68,10.71-1.25,14.62-1.52l.09-.52c2.68-.3,5.23-.74,8.53-1.31L154,182c2.83-.68,7.41-.47,11.95-1a6.2,6.2,0,0,1-2.28.25c5.53.46,11.4-1.82,16.4-1.51a10.62,10.62,0,0,1,3-.25l-.3,0,.51,0,1.72.09a13.45,13.45,0,0,0-1.45-.12c.94-.09,2.38-.26,3.78-.49l.64.44.32,0c1.4.06,1.1-.32.33-.62.7-.14,1.35-.29,1.84-.44,1.19.69,3.69-.55,5.29.16.92-.48,7.07-.83,7.76-1.73.06.1.48.13-.28.19a20.21,20.21,0,0,0,4.55-.38l.72.57,3.38-1.07c2.11.23,3,.39,1,1,5-1.07,4-.55,8.26-1.56l-.18.4c1.52-.11,3.92-.81,4.86-.55,3.46.52,16.87-1,25.68-1-1.79-1,4.1.23,4.38-.7.53.24,1.77.3.37.65,4.44-.61,6.74-.08,9.77-1.08.53.24-.93.48-.46.61a5.14,5.14,0,0,1,1.88-.23c.47.13-.64.28-1.33.46,4.56-.41,4.95-1.3,5.21-2.12a9.61,9.61,0,0,0,5.12-.63c.83.19,2.19.34-.63.68,1.59-.09,9.77-.49,9.87-1.15a10.24,10.24,0,0,0,2.64-.28c3.58-.32,3.9-.29,7.4-.72h-1c1.3-.92,2.9-.47,5.71-.89l-.07.09c6.54-.19,2.76-.58,9.23-.73l-.41-.43c.46-1.09,5.73-.11,9.38-1l-1.37-.08c2-.63,5.84.58,7.89.38.46,0-.67.25-1.28.41,5.41-.22.59-.71,4.53-1.5.78.22-.81,1,1.87.63,1.38.06,7.52-2.41,11.25-2.52-.84-.09-1.68-.19.1-.75,2.78-.62,7.77-.63,10.1-2,.37,0,.52,0,.55.08,2.08-.71,6.81-2.06,7.95-2.86,1.19.54,4.42-.58,7.36-1.72s5.57-2.33,5.8-1.6c2.11-.78,4.22-1.58,6.29-2.45l-.1.21a19.85,19.85,0,0,0,6.51-3.49c.95-.32.35.11.31.22a40.39,40.39,0,0,0,5.89-2.8,36.85,36.85,0,0,0,4.66-3.43l.72.12a12.86,12.86,0,0,1,1.81-1.15c.86-.55,2-1.18,3.22-2a35.13,35.13,0,0,0,7.34-6.14c0,.08,0,.24-.34.65,2.39-2.63,5.48-5.57,7.8-8.51s3.89-5.74,3.65-7.31c.31-.72.58-1.45.82-2.2s.52-1.47.72-2.22c-2.52,5.43-.35-1.12-1.61,1,.84-2.13,2.65-5.42,1.76-2.69l-.24.39c.24.66,1-1,1.63-2.93.34-.93.6-1.92.83-2.64s.44-1.2.58-1.13a76.85,76.85,0,0,0-.43-34.21l-.41,1.41c-.3-1.25-.55-2.5-.91-3.74-.14-1,.2-1.47.89,1.21a9.31,9.31,0,0,0-1.8-4.37c-1.5-5.19,1.5,1.73,1,.17-.24-.72-.52-1.42-.78-2.13l.08.51A26.5,26.5,0,0,1,420.71,61c-.7-2,0-1.17-.34-1.93.05,0-.05-.29-.52-1.17s-.69-1.48-1.06-2.2-.73-1.47-1.13-2.18c.16.66.28,1.33.41,2-.31-.45-.6-.92-.85-1.35s-.5-.78-.66-1c-.33-.49-.42-.48-.14.64-.36-1.67-2.65-5.62-5.38-9.05s-5.73-6.39-6.35-7.2c-2.45-1.81-4.67-3.75-7.54-6.05.65.66.7,1.47-1.77-.46.85-.19-.2-1.21-1.74-2.35-.75-.59-1.62-1.22-2.42-1.82a12.45,12.45,0,0,1-1.94-1.74c.83.86-1.13-.28-3-1.24s-3.61-1.74-2.24-.5c-2.29-1.3.09-.52-1.55-1.71-5.82-2.39-12.53-6-20-8-.17.13,1,.75-.67.54-1.22-.68-2.45-1.33-3.69-2-1.51-.32-1.62.63-4.18-.65.35.24.87.6-.14.41a121.4,121.4,0,0,0-22.64-4c-7.7-.77-15.43-1.22-23.11-2.08,2.08.37.69.38-.89.39,1,.08,0,.43.17.67q-3.19-.34-6.42-.6c-1.15.67-6.88.31-7.52,1l2-.23c-2.65.88,3.84,1.47,3.47,2.46,3-.95,7.87,1.07,12.77,0,1.08.21-.93.29-.35.52a13.74,13.74,0,0,1,5.52-.13l-.32.09a91.86,91.86,0,0,1,9.55.78c2.88.39,5.87.85,10.17,1.58l-.57-.56a17.76,17.76,0,0,1,3.07.78c2.24-.41-5.22-.8-3.16-1.3,1.17.65,4.45,1.1,7.61,1.7s6.19,1.26,6.89,2c2.8.65-.71-.72,2.1-.07l.68.46.79-.2c1.83.52,2.66,1.11,2.66,1.37-.43-.15-1.28-.25-1.76-.35a32.2,32.2,0,0,0,4.29,1.22c1.47.38,2.76.66,3.15.84l-2.6-1a98.86,98.86,0,0,1,12,3.9c4,1.55,7.91,3.29,11.38,4.79l-.4-.46c1.32.59,2.23,1.05,2.94,1.43s1.19.74,1.69,1.09c1,.7,2.07,1.46,4.74,3.15l-.22-.08a16.12,16.12,0,0,1,1.93,1c.67.43,1.38.92,2.06,1.45-.72-.37-.19.17.28.7s.85,1-.05.49c2.57,1.75,3.18,2.23,3.65,2.46a12.74,12.74,0,0,1,2.58,1.35l.43.93a10.88,10.88,0,0,1,1.48.91,18.27,18.27,0,0,1,2.23,2c-2-1.72.93,1.88-1.32,0a69.56,69.56,0,0,0,4.9,6,9.62,9.62,0,0,1,2.59,4.35c1.23,1,.62-.28-.24-1.64s-2-2.74-1.35-2.12c-.29-.68.24-.28,1,.51a20.87,20.87,0,0,1,2.14,2.95c1.05,1.88.82,3.73,3,8.5-.22-.48-.3-.48-.52-1,.62,1.88,1.91,3.4,2.36,5.83,1,1.08,1,3,1.86,3.12-.24-.78-.57-1.53-.86-2.29s-.57-1.52-.92-2.26c.6,1.25,1.29,2.43,2,3.86a18.93,18.93,0,0,1,1.61,5.45,20.64,20.64,0,0,1-1.13-2.46c.14,1.35.78,2.46.89,3.86-.44-.1-.83-1.53-1.28-3.27a23.12,23.12,0,0,0-1.92-5c.21,1.41,2.2,5.14,1,4,1.68,1.75,1.2,5,2.67,8.41L422,79a15.59,15.59,0,0,1,.71,2.71L421.82,80c1,2.78.34,5.56.76,8.27-.06-1.44-.13-2.24-.11-2.67s.09-.5.19-.47.48.57.53-.68c.16.89.28,1.62.35,2.24a12.37,12.37,0,0,1,0,1.56,8.79,8.79,0,0,1-.32,2c-.38,1.15-.66,2.38-.74,6.33,0-1.07.44-4,.59-2.33-.07.76-.18,1.63-.3,2.43a12.86,12.86,0,0,1-.49,2c-.49,5.2.61-.74.64,1.5-.83,1.7-.08,2.6-.38,4.93l-.47-.09c-.79,2.89-.72,3.32-.54,3.71s.3.69-.72,3.22c0-.79,0-1.6.06-2.38-.23.9-.42,1.83-.72,2.72l-.31-.73a17.27,17.27,0,0,1-1,3.36,25,25,0,0,1-1.62,3.06c.31-.23.46-.05.39.49a7.81,7.81,0,0,1-1.1,2.6c-.58.71-.55.43-.61.38s-.18.15-1.21,1.74a5.56,5.56,0,0,1,1.62-3c-.05-.22.16-.87.12-1.09-1.24,1.51-2.58,4.08-3.41,5.15.33-.4.71-.88.94-1.11-.85,1.6-1.78,3.18-2.8,4.71-.69.54-.36-.08,0-.69a28.38,28.38,0,0,1-2.09,2.82c0-.58-.35-.78,1-2.58-1,1.37-2.09,2.72-3.24,4-.34.14-2.27,1.45-1.87.89-2.23,1.74-4.92,5.11-8.34,7a5.72,5.72,0,0,1-1.09.93c-3.13,1.85-6.15,3-9.8,5.36l-2.52.4c-3,1.54,3.41-.56-1.65,2-3.61,1.79-1.62,0-3,.39a23.23,23.23,0,0,1-8.41,3.66C371.29,151.37,372.23,151.16,373.29,150.72Zm-40.93,10.65a8.9,8.9,0,0,1,3-.67C334.54,161.42,333.77,161.28,332.36,161.37Zm-64.21,8.73a7,7,0,0,1,2.64-.11A15.63,15.63,0,0,1,268.15,170.1Zm-179,23.4.08-.05C91.05,193.17,90.4,193.26,89.15,193.5Zm-3.73.77c-.35.17-.31.22-.13.25a6.72,6.72,0,0,1,2-.64A3.74,3.74,0,0,0,85.42,194.27ZM420,58.74l.21.75C419.38,58,419.7,58.37,420,58.74Z" transform="translate(-1.63 -0.01)"/><path class="cls-1" d="M275.43,168.83a.52.52,0,0,1,.37.23C276.12,169,276.12,168.86,275.43,168.83Z" transform="translate(-1.63 -0.01)"/><path class="cls-1" d="M396.52,139.24l.11-.07a.27.27,0,0,0,.06-.14Z" transform="translate(-1.63 -0.01)"/><path class="cls-1" d="M143,179.4a8.41,8.41,0,0,1,1.54.06C144.57,179.34,144.2,179.28,143,179.4Z" transform="translate(-1.63 -0.01)"/><path class="cls-1" d="M66.52,201.14l2.23-.94a10.83,10.83,0,0,1-2.1.59C66.74,200.88,67.23,200.87,66.52,201.14Z" transform="translate(-1.63 -0.01)"/><path class="cls-1" d="M46,207c-.29.22-.67.36-.95.58l.19.15C46.59,207,47.45,206.38,46,207Z" transform="translate(-1.63 -0.01)"/><path class="cls-1" d="M63.85,200.45c-.33-.32-1.71.36-3.26,1.08l.28-.11C60.62,202.14,62.22,201.25,63.85,200.45Z" transform="translate(-1.63 -0.01)"/><path class="cls-1" d="M60.23,201.7c-.48.21-1,.43-1.46.6C58.67,202.59,59.38,202.11,60.23,201.7Z" transform="translate(-1.63 -0.01)"/><path class="cls-1" d="M80.85,195.84c-.8.13-.34.64-.82.61C79.3,197.2,85,194.33,80.85,195.84Z" transform="translate(-1.63 -0.01)"/><polygon class="cls-1" points="60.44 199.69 61.2 199.93 61.95 199.21 60.44 199.69"/><path class="cls-1" d="M75,195.52c-.89.22-1.77.46-2.65.71.06.07-.25.23-.65.4A23,23,0,0,0,75,195.52Z" transform="translate(-1.63 -0.01)"/><path class="cls-1" d="M71.69,196.63a15.27,15.27,0,0,0-2.06.78C70.08,197.25,71,196.91,71.69,196.63Z" transform="translate(-1.63 -0.01)"/><polygon class="cls-1" points="63.9 198.2 64.7 198.02 66.54 197.4 63.9 198.2"/><path class="cls-1" d="M103.59,188.24l2.91-.74c.27-.23-.55-.17-1.63.12C104.19,187.88,103.11,188.17,103.59,188.24Z" transform="translate(-1.63 -0.01)"/><path class="cls-1" d="M94.43,188.86a4.26,4.26,0,0,1,1.38.07l0-.62Z" transform="translate(-1.63 -0.01)"/><path class="cls-1" d="M103,186.82c.25-.23,4.18-1.36.45-.56C103.15,186.48,100.23,187.25,103,186.82Z" transform="translate(-1.63 -0.01)"/><polygon class="cls-1" points="146.19 180.53 145.43 180.62 145.66 181.62 146.19 180.53"/><path class="cls-1" d="M187.31,174.27c-3.57,0-.79.69-4,.65-.82.31,2.64,0,1.8.31C187.22,174.8,188.35,174.85,187.31,174.27Z" transform="translate(-1.63 -0.01)"/><path class="cls-1" d="M185.09,175.23c-.34.07-.7.14-1.08.24A7.59,7.59,0,0,0,185.09,175.23Z" transform="translate(-1.63 -0.01)"/><polygon class="cls-1" points="294.94 5.9 292.61 5.81 294.12 6.07 294.94 5.9"/><path class="cls-1" d="M292.17,6.93l-.59-.61L290.21,7A6.35,6.35,0,0,1,292.17,6.93Z" transform="translate(-1.63 -0.01)"/><path class="cls-1" d="M325.92,161.13l-.14.18a5.39,5.39,0,0,0,2-.11Z" transform="translate(-1.63 -0.01)"/><polygon class="cls-1" points="354.47 155.44 353.96 155.56 355.06 155.88 354.47 155.44"/><path class="cls-1" d="M380.08,146.71c-.95.4-2,.95-3,1.32C379.13,147.11,380.62,147.27,380.08,146.71Z" transform="translate(-1.63 -0.01)"/><polygon class="cls-1" points="292.88 0.76 275.6 10.68 296.29 15.4 292.88 0.76"/><path class="cls-1" d="M292.15,1.39c0-.09-.38,0-.46,0C291.81,1.54,292.26,1.36,292.15,1.39Z" transform="translate(-1.63 -0.01)"/><polygon class="cls-1" points="291.76 2.49 291.59 2.51 292.04 2.61 291.76 2.49"/><path class="cls-1" d="M293.67,3.75c.67-.28-.21-.42,0-.7L293.8,3l-.58,0C293.37,3.25,293.82,3.52,293.67,3.75Z" transform="translate(-1.63 -0.01)"/><path class="cls-1" d="M292.33,4.77c.26-.11.26.09,0-.18l-.06,0A.31.31,0,0,1,292.33,4.77Z" transform="translate(-1.63 -0.01)"/><path class="cls-1" d="M292.31,4.64c-.05-.13-.21.14,0,0Z" transform="translate(-1.63 -0.01)"/><path class="cls-1" d="M292.61,5.21l-.28-.12c-.16.07-.16.24-.29.21C292.22,5.44,292.37,5.37,292.61,5.21Z" transform="translate(-1.63 -0.01)"/><path class="cls-1" d="M293.15,5.25,293,5.19C293,5.22,293,5.25,293.15,5.25Z" transform="translate(-1.63 -0.01)"/><path class="cls-1" d="M292.77,5.05l.26.14c.11-.05.33-.11-.1-.07C293.14,5.09,292.93,5.09,292.77,5.05Z" transform="translate(-1.63 -0.01)"/><path class="cls-1" d="M292.85,4.92c.13-.14.2-.28.48-.17C293.15,4.44,292.68,4.61,292.85,4.92Z" transform="translate(-1.63 -0.01)"/><path class="cls-1" d="M294.41,3.65l.17-.18-.26-.06C294.45,3.44,294.19,3.71,294.41,3.65Z" transform="translate(-1.63 -0.01)"/><path class="cls-1" d="M292.5,6.37a5.17,5.17,0,0,0,.57-.21l-.2-.09C292.78,6.16,292.72,6.31,292.5,6.37Z" transform="translate(-1.63 -0.01)"/><path class="cls-1" d="M293.07,6.16l.29.13C293.35,6.12,293.23,6.11,293.07,6.16Z" transform="translate(-1.63 -0.01)"/><polygon class="cls-1" points="292.3 5.09 291.7 4.9 292.32 5.15 292.3 5.09"/><polygon class="cls-1" points="291.02 7.09 290.65 7.06 291.22 7.14 291.02 7.09"/><path class="cls-1" d="M292.82,7.57c-.3,0-.45.23-.64.18.08.12.35.18.59.23C292.62,7.9,292.63,7.78,292.82,7.57Z" transform="translate(-1.63 -0.01)"/><path class="cls-1" d="M293.13,8.07a3.11,3.11,0,0,0-.36-.09A1.09,1.09,0,0,0,293.13,8.07Z" transform="translate(-1.63 -0.01)"/><path class="cls-1" d="M293.37,6.64a.77.77,0,0,0-.39.25l.4-.18Z" transform="translate(-1.63 -0.01)"/><path class="cls-1" d="M293.39,6.71h0v0Z" transform="translate(-1.63 -0.01)"/><path class="cls-1" d="M293.36,6.62v0S293.42,6.61,293.36,6.62Z" transform="translate(-1.63 -0.01)"/><path class="cls-1" d="M293.67,5.69c.26.06.57.24.87-.07C294.23,5.6,294.06,5.78,293.67,5.69Z" transform="translate(-1.63 -0.01)"/><path class="cls-1" d="M293.86,6.4l.05-.22a.85.85,0,0,1-.39.07Z" transform="translate(-1.63 -0.01)"/><polygon class="cls-1" points="292.39 6.46 292.23 6.39 292.22 6.47 292.39 6.46"/><path class="cls-1" d="M293.44,7.63a.39.39,0,0,1,.29.24.63.63,0,0,0,0-.38C293.64,7.51,293.39,7.51,293.44,7.63Z" transform="translate(-1.63 -0.01)"/><path class="cls-1" d="M293.45,7.18h0S293.52,7.16,293.45,7.18Z" transform="translate(-1.63 -0.01)"/><path class="cls-1" d="M294,8.94l.07,0H294Z" transform="translate(-1.63 -0.01)"/><path class="cls-1" d="M293.85,7.46c.06-.11-.06-.14-.2-.16a.44.44,0,0,1,.12.19C293.83,7.49,293.87,7.48,293.85,7.46Z" transform="translate(-1.63 -0.01)"/><path class="cls-1" d="M293.39,8.33a1.2,1.2,0,0,0,.19-.21C293.46,8.2,293.28,8.33,293.39,8.33Z" transform="translate(-1.63 -0.01)"/><path class="cls-1" d="M293.37,7.25h0C293.27,7.29,293.31,7.27,293.37,7.25Z" transform="translate(-1.63 -0.01)"/><path class="cls-1" d="M293.37,7.25a1.08,1.08,0,0,0,.28,0,.56.56,0,0,0-.17-.11Z" transform="translate(-1.63 -0.01)"/><path class="cls-1" d="M296.72,8.64c-.39.08-.8-.07-.43-.36a5,5,0,0,0-2.24.63.72.72,0,0,1,.6.08c.19-.12.39-.57.77-.48s-.08.25-.26.43c.46-.22.78.17,1.48,0l-.31-.17C296.44,8.69,296.64,8.73,296.72,8.64Z" transform="translate(-1.63 -0.01)"/><path class="cls-1" d="M294,8.52l-.07-.08c0,.11-.18.22-.46.41a.8.8,0,0,0,.5.07l0-.42Z" transform="translate(-1.63 -0.01)"/><path class="cls-1" d="M293.84,8.07c.44,0,.66.13,1.09-.1-.09-.24-.39-.09-.61-.19.2.37-.26-.06-.43.28a.4.4,0,0,1-.16-.19.73.73,0,0,1-.15.25h0c.05,0,.08,0,.06,0h0l.16,0c-.06.14-.1,0-.16,0h-.07l.32.33C294,8.35,293.93,8.25,293.84,8.07Z" transform="translate(-1.63 -0.01)"/><path class="cls-1" d="M295.49,5.62l-.1,0C295.45,5.67,295.49,5.67,295.49,5.62Z" transform="translate(-1.63 -0.01)"/><path class="cls-1" d="M295.27,5.84c-.06,0-.23,0-.21-.11s.2,0,.33-.08a.42.42,0,0,0-.51.1H295a1.68,1.68,0,0,1-.65.51A6.5,6.5,0,0,0,295.27,5.84Z" transform="translate(-1.63 -0.01)"/><path class="cls-1" d="M294.67,6.94l.28.28.32-.25-.21.06C295.1,6.82,294.84,6.93,294.67,6.94Z" transform="translate(-1.63 -0.01)"/><polygon class="cls-1" points="292.15 9.02 291.69 9.08 292.36 9.12 292.15 9.02"/><polygon class="cls-1" points="292.3 9.43 291.91 9.5 292.17 9.56 292.3 9.43"/><path class="cls-1" d="M276.11,12.87l-.37,0A2,2,0,0,0,276.11,12.87Z" transform="translate(-1.63 -0.01)"/><path class="cls-1" d="M277.19,13.15l.35-.12C277.31,13.08,277.16,13.13,277.19,13.15Z" transform="translate(-1.63 -0.01)"/><path class="cls-1" d="M293.22,11.79c-.18-.42-.35-1-.23-.57l.13.48C293.13,11.62,293.17,11.68,293.22,11.79Z" transform="translate(-1.63 -0.01)"/><path class="cls-1" d="M286.89,13l0,.14.18-.39Z" transform="translate(-1.63 -0.01)"/><path class="cls-1" d="M286.38,14.72l-.19-.33A.8.8,0,0,0,286.38,14.72Z" transform="translate(-1.63 -0.01)"/><path class="cls-1" d="M270.28,11.41l-1,0C269,11.62,269.74,11.47,270.28,11.41Z" transform="translate(-1.63 -0.01)"/><path class="cls-1" d="M294.55,11.4c-.19-.08-.27-.11-.29-.1C294.55,11.47,295,11.69,294.55,11.4Z" transform="translate(-1.63 -0.01)"/><path class="cls-1" d="M284.79,10.13l-.51.15A3.15,3.15,0,0,0,284.79,10.13Z" transform="translate(-1.63 -0.01)"/><path class="cls-1" d="M294.28,11.41l.13.07c-.1-.09-.18-.17-.15-.18C294,11.18,293.9,11.1,294.28,11.41Z" transform="translate(-1.63 -0.01)"/><path class="cls-1" d="M288.67,1.26s0,0,.06,0S288.69,1.25,288.67,1.26Z" transform="translate(-1.63 -0.01)"/><path class="cls-1" d="M294.42,3c0,.05-.08.08-.13.12S294.37,3.11,294.42,3Z" transform="translate(-1.63 -0.01)"/><path class="cls-1" d="M294,10.36s-.05,0,0,0Z" transform="translate(-1.63 -0.01)"/><path class="cls-1" d="M295.67,10.17a1,1,0,0,0,.22,0A1,1,0,0,1,295.67,10.17Z" transform="translate(-1.63 -0.01)"/><path class="cls-1" d="M297.85,14.83Z" transform="translate(-1.63 -0.01)"/><path class="cls-1" d="M294.14,10.33l-.12,0Z" transform="translate(-1.63 -0.01)"/><path class="cls-1" d="M293.93,10.33l0,0C293.9,10.3,293.85,10.3,293.93,10.33Z" transform="translate(-1.63 -0.01)"/><path class="cls-1" d="M294,10.4s0,0,0,0H294Z" transform="translate(-1.63 -0.01)"/><path class="cls-1" d="M281.86,6.51h.07C281.84,6.37,281.82,6.41,281.86,6.51Z" transform="translate(-1.63 -0.01)"/><polygon class="cls-1" points="289.64 15.95 289.65 15.93 289.64 15.91 289.64 15.95"/><path class="cls-1" d="M290.87,16.2c.26-.49.32-.41.4-.28l.17-1.24Z" transform="translate(-1.63 -0.01)"/><path class="cls-1" d="M273.14,12.32l-.5.29c-1.92.22-1.84,0-2.68.38a6.2,6.2,0,0,1,2.55-.19,4.78,4.78,0,0,0,2.36-.22l-.33.21c-.05,0-.22,0-.27,0-.8.48,2.34-.48,2.5-.24,0,.11-.22.26-.66.32l1.07-.1c.08.05-.36.19-.45.14l.88.09-.07,0,1.53-.35c-.15.16-.31.07-.54.19l.87-.13a2.26,2.26,0,0,1-1.42.33c-.91.49-.67.46-.29.38s.9-.18.73.18l-.64,0c-.88.59-.14.48-.29.93.11-.1.27-.37.55-.63a2.21,2.21,0,0,1,1.13-.57c0,.1.07.17.66,0-.64.35-.25.32.07.36l-.82.47a6.49,6.49,0,0,0,1.45-.48c.26.12-.22.52-.58.86.49.22.47-.7,1.27-.64.2.29.82.17,1.64,0,.12.26-.38.32-.42.49l.69-.36c.05,0-.09.15-.16.22.38-.12.52-.54,1-.62.3-.29.26,0,.32.23s.19.53.61.22c0,.19-.25.34-.35.58a3.52,3.52,0,0,0,1.43-.79,3.67,3.67,0,0,0,.25.48c-.14-.52.4-1,.7-1.39l0-.56.43-.25a1.24,1.24,0,0,1-.19.56l.1-.13a1.4,1.4,0,0,1-.24.93l0-.41a5,5,0,0,0-.44,1.12,1,1,0,0,1,.17-.14.83.83,0,0,0-.08.26c0,.06.06-.07.16-.21l-.08.71.09-.27.37.54c.5-.62,1-1.58,1.63-1.75a5.35,5.35,0,0,0-.36,1.43c0-.67-.48.18-.73,0,.13.1,0,.38,0,.47l.63-.47c-.12.49,0,.39.11.63.12-1,.51-.57.78-.82-.06.33-.18.65-.41.52.1.8.61-1.07.74-.38-.06,0-.09-.07-.15.1.21-.26.5.05.35.31h-.06a1,1,0,0,0,1.47-.54c0,.11-.28,1-.35,1.15l1.35-2.62c-.22.7-.37,2.45-.79,2.77a.37.37,0,0,0,.14.16.49.49,0,0,0,.4-.07,2,2,0,0,1,.09-1.13c.19.88.13.48.51,1.27-.14-.19.1-1.31.27-1.23a9.69,9.69,0,0,1-.09,1.26,6.2,6.2,0,0,0,.5-1,2.48,2.48,0,0,0,.19,1.35c-.08-.25.51.14.65,0l-.29-.33c.7.33.23-1.57.67-1.41,0,.25.35,1.55.73,1.78,0-.31-.18-1.05-.35-1.78s-.41-1.46-.43-1.7l.25.4a2.91,2.91,0,0,0,0-.4,11.7,11.7,0,0,1,.77,2,5,5,0,0,1,.19,1.73c.37.35.26.46.62.51.31.39,0,.49-.09.48l1.1.45c-.45-.79.27-.63-.18-1.31a3.05,3.05,0,0,1-.49.61,4.3,4.3,0,0,1-.4-1.31c0-.4,0-.68.25-.56a11.05,11.05,0,0,1,1,1.68c-.08-.25.21-.4.4-.19,0,.13,0,.25.05.38.59.39-.25-1,.74-.09.16.08,1.31,1.19.93.69a61.61,61.61,0,0,1-4-4.72L297.08,15c.89.83,1.42,1.8,2.17,2.5a4,4,0,0,1-.4-.59c.32.24.63.73.83.69-.8-.88.66.21-.58-.72,0-.13.2,0,.42.14,0,0,.07,0,0-.16a30.18,30.18,0,0,1-2.34-2.55c.23.22.51.44.64.54,0-.35.32-.29.22-.73a1.85,1.85,0,0,1,.77.4,3,3,0,0,1-.52-.59c.65.17.2.42,1,.77a7.72,7.72,0,0,1-1.1-1.23c-.71-.37,0,.35.32.79a24.74,24.74,0,0,1-2.7-2.26c-.3-.35.61.24.46.13.05-.45-1.76-1.08-1.14-1.11a10.74,10.74,0,0,1,1.6.44c.28.33-.29.25-.24.4l.25-.08c.21.15.41.39.26.41.5.05-.14-1,.22-1.39-.21-.12-.44-.28-.65-.22l.11.15c-.43.06-.68-.3-.86-.16-.35-.2-.87-.31-.66-.5l.6-.09c-.18,0-.33.16-.13.21-.29,0,.75-.44-.07-.42l-.39.2a5.63,5.63,0,0,0-.61-.08c-.19,0-.33-.17-.27-.31-.56.25.08,0-.57.38.41-.2.46,0,.46.05s0,.12.47,0c-.8.18-.31.19-1,.28.2,0,.39,0,.3,0l.19,0h0l.3,0c.49.05.52.24.79.35-.08,0-.25-.07-.47-.06l.4.15a3,3,0,0,1-1.08-.19v.08c-.26,0-.36,0-.14.1-.11,0,.58.32.17.12q.18.13.36.3l-.13-.07c0,.06.22.25.35.41s.16.29-.32,0c.15.15.34.35.2.31l-.5-.39c.19.21-.47-.31.06.18-.59-.53-.72-.64-.69-.59s.2.29,0,.14l.58.66c-.1,0,0,.12.1.35l.44.56c.22.42-.58-.46-.67-.44-.12-.2-.05-.14.06,0-.48-.62-.38-.41-.35-.18s0,.49-.21,0c0,.18,0,.11-.1,0v0h0l-.14-.27a2.35,2.35,0,0,0,.13.27s-.06.06-.08.17l-.15-.53h0c-.08-.2,0,.24.14.64a2.44,2.44,0,0,0,0,.29c-.2-.84-.13.24-.3-.65,0,.42-.23.26-.32,1.12,0-.12,0-.18,0-.17s-.14-.24-.25,0l.05-.62a7.35,7.35,0,0,1-.32.77,1.13,1.13,0,0,1,.16-1.05c-.56.61-.38.19-.88.81l.1-.38c-.12,0-.43.46-.43.13-.11-.8-1.32-.41-1.86-1.25-.13,1.16-.21-.59-.44.29,0-.28,0-.45.12-.66-.41.18-.43-.55-.85.14,0-.28.17-.38.17-.55,0,.06-.17.21-.17,0s.11-.21.19-.32c-.37,0-.6.79-.8,1.56-.09-.41-.22-.39-.44.1,0-.26,0-.54.19-.6-.09-.06-.29-.46-.58.13.05-.15-.09-.07-.15,0-.17-.08-.15-.14-.37-.12v.1c-.57.66-.29.11-.51.16l.06-.07c.09-.55-.4.18-.19-.42l-.42.39c-.49.42-.46.27-.35.06s.34-.48,0-.35l-.22.23c-.26.12,0-.17.44-.5s.93-.69,1-.75a1.11,1.11,0,0,1,.29-.14c.63-.49-.79.46-1.14.53.43-.25,1.16-.62,1.18-.68s-.24.09-.64.23-.78.24-.33,0a7.51,7.51,0,0,1-1.15.47c-.14,0,.17-.16.36-.28s.25-.17-.54.07l.35-.13c-.47.12-.95.15-1.91.39,1.58-.49,1.07-.4.46-.32s-1.31.17.42-.22l-.46,0,.38-.08a10.58,10.58,0,0,0-1.89.22c.21-.06.61-.11.82-.15s.4-.16-.38-.08l-1.21.1,1.33-.19c-.35,0,.26-.1.77-.2s.89-.19.32-.2l.5,0c-.56,0,.39-.16.9-.23s.63-.1-1.14-.13a6.38,6.38,0,0,1-.68-.12,16.06,16.06,0,0,1-2.21,0A3.28,3.28,0,0,1,281.73,9h-.19c1.75.08,1-.2,2.16-.12a3.37,3.37,0,0,1,1-.33,6.8,6.8,0,0,0,.95-.21L284.77,8,285,7.9c.24.06.69.27.57.3.51.19-.24-.26-.38-.36.51,0,.82.51.91.48V8.25l-.11,0c-.25-.19-.56-.38-.39-.44s.46.26.51.26.08,0,.06,0l.2,0-.54-.35c-.15-.24.22-.09-.41-.49,1,.6,1-.13,1.43,0a.63.63,0,0,1,.49-.7c-.12-.07-.48-.61-.22-.66.58,1.2.69.27,1.35,1-.48-.46.54-.49-.16-1.14.24,0,.26.43.56.63.18-.71,1.13-.26,1.58-.73-.08-.15-.3-.34-.31-.63l.72.6c.06-.14-.41-.94.09-.52-.1-.11-.25-.28-.21-.37,1.49.13,1.81-1.85,3.69-1.07-.32-.21-.24-.3-.13-.37-.11,0-.22-.38-.35-.58l.78.32c-.25-.62.46-.32.19-.9l-.08.19c-.19-.76-1.09-1.29-1.54-2.14.21.86-1.19-.77-.93.49-.18-.13-.09-.31-.24-.48.11.41.05.54-.24.5l0-.1c-.5.4-.94.19-1.7.31l.28.39c-.16,0-.26-.1-.39-.16.21.71.4-.18.66.58-.66-.73-1,.53-1.62-.35-.21.12.33.44.12.56l-.2-.23.14.36c-.17,0-.42-.26-.55-.47.05,0,.06-.12.08-.16-.35-.2-.43.39-.55.33l.29,0c-.42.56-1.3.62-1.55,1.46l.16.17c-.21.59-.46,0-.82.4V3.61c0,.24,0,.41-.18.46,0-.3-.47-.32-.46-.66-.23.65-.05.43.06,1.32l-.25-.28c.06.35.16.5-.05.73.08-.41-.49-.37-.42-.89a.63.63,0,0,0-.84.43c-.11.25-.17.41-.78.07.46.92,1,.09,1,.35.34.19.29.72.06.73s-1.36-.73-1.95-.37c.07,0,0-.08.06-.11-.47,0-.08.45-.77.36.5.43-.38.18.43.62l.29-.37c-.1.29.7.9-.19.89a.76.76,0,0,1-.32-.38c-.4,0-.07.22-.48.18-.9-.39.39-.42.07-.93-.53-.08,0,.66-.78.12.48.35.31.41.06.47s-.56.13-.22.42l-.58-.21c0,.07.19.23.06.29-.2-.12-.4-.24-.59-.37.36.4-1.3.22-1.26.52.7-.41,1,.11,1.73.07.17.64-2.23-.15-2.92.51,0-.1.95-.22,1.08,0a8.33,8.33,0,0,1-1.39.19c-.49.4.91,0,1.12.25-1.18,0,.1.22.19.38l-.85-.07c-1.25.36,1.65.22.4.5l-1-.19a1.21,1.21,0,0,0,0,.19l-1-.07c.41.24.12.28-.55.49.76-.05,1.72,0,1.49.17-.79.12-.85,0-1.11.19-.56,0-1.23-.08-.12-.21-.31,0-.53,0-.83,0-.92.15-.77.36-.92.45a2.18,2.18,0,0,1,.42-.12,6,6,0,0,0,.85.29,3.61,3.61,0,0,1-1,0c0,.06.4.08.31.18a5.66,5.66,0,0,1-1.92,0,2,2,0,0,0,.34.3c-.44.06-1.45.3-1.71.28-1,.3,1,.33-.27.69a.73.73,0,0,1,.36,0c-.28.12-.75.26-1.13.4,0,.11.26.19,1.41.13l-1.44.4c.87,0,1.79-.5,3.19-.46,1.06,0-1.27.33-1.55.47,1.17-.1,3.24-.37,2.42,0C273.3,12.41,273.41,12.33,273.14,12.32Zm6,1.06c-.24,0-.92.21-.58,0C279.53,13,279.21,13.23,279.17,13.38Zm8,.64c-.09.14-.14.05-.19-.15C287.07,13.85,287.14,13.88,287.19,14Zm7.26-3.24h0C294.28,10.79,294.36,10.79,294.45,10.78Zm.2-.06-.22-.06c.13,0,.15.07.12.09C294.69,10.78,294.78,10.79,294.65,10.72ZM286,7.91l-.15-.07C285.75,7.72,285.85,7.81,286,7.91Z" transform="translate(-1.63 -0.01)"/><path class="cls-1" d="M286.45,14.53a1.23,1.23,0,0,1,0-.27A.24.24,0,0,0,286.45,14.53Z" transform="translate(-1.63 -0.01)"/><path class="cls-1" d="M270.47,11.4h0l-.22,0Z" transform="translate(-1.63 -0.01)"/><path class="cls-1" d="M299.72,17.84a3.43,3.43,0,0,1-.47-.36A1.26,1.26,0,0,0,299.72,17.84Z" transform="translate(-1.63 -0.01)"/><path class="cls-1" d="M293.67,10.13l.14,0s.07-.05.14-.07A1.59,1.59,0,0,1,293.67,10.13Z" transform="translate(-1.63 -0.01)"/><path class="cls-1" d="M296.22,7.94c-.06,0,0-.06-.08-.08l-.22.06A.16.16,0,0,0,296.22,7.94Z" transform="translate(-1.63 -0.01)"/><path class="cls-1" d="M295.23,9.74c.39-.08.23-.17.12-.3a0,0,0,0,1,0,0C294.8,9.55,295,9.68,295.23,9.74Z" transform="translate(-1.63 -0.01)"/><path class="cls-1" d="M295.33,9.42a.28.28,0,0,1,0-.13C295.07,9.33,295.26,9.35,295.33,9.42Z" transform="translate(-1.63 -0.01)"/><path class="cls-1" d="M294.32,10.5c.11,0-.55-.09-.38-.07C293.39,10.32,294.64,10.67,294.32,10.5Z" transform="translate(-1.63 -0.01)"/><polygon class="cls-1" points="294.88 9.34 294.4 9.5 294.81 9.48 294.88 9.34"/><path class="cls-1" d="M296.38,10.41l.09-.2a.24.24,0,0,1-.18-.05C296.3,10.29,296.22,10.41,296.38,10.41Z" transform="translate(-1.63 -0.01)"/><path class="cls-1" d="M296.29,10.16a.17.17,0,0,0-.12-.15A.28.28,0,0,0,296.29,10.16Z" transform="translate(-1.63 -0.01)"/><polygon class="cls-1" points="295.1 9.61 295.01 9.69 295.01 9.85 295.1 9.61"/><path class="cls-1" d="M296.76,12.47l.22.31c.21.15.32.16.22,0A1.54,1.54,0,0,0,296.76,12.47Z" transform="translate(-1.63 -0.01)"/><path class="cls-1" d="M298.17,12.47a1,1,0,0,1-.41-.06l.71.31Z" transform="translate(-1.63 -0.01)"/><path class="cls-1" d="M298.54,13.42c.2.13.69.79.55.35C298.88,13.62,298.64,13.22,298.54,13.42Z" transform="translate(-1.63 -0.01)"/><polygon class="cls-1" points="295.67 15.53 295.72 15.54 294.58 14.23 295.67 15.53"/><path class="cls-1" d="M294.59,17.42c.56.38-.08-.66.43-.23,0-.24-.41-.35-.37-.55C294.47,16.86,294.28,16.67,294.59,17.42Z" transform="translate(-1.63 -0.01)"/><path class="cls-1" d="M294.65,16.64a.91.91,0,0,0,.07-.14A.19.19,0,0,0,294.65,16.64Z" transform="translate(-1.63 -0.01)"/><polygon class="cls-1" points="293.65 3.14 293.92 3.23 293.65 2.99 293.65 3.14"/><path class="cls-1" d="M295.22,2.31l.36.55-.2-.57S295.32,2.43,295.22,2.31Z" transform="translate(-1.63 -0.01)"/><path class="cls-1" d="M278.29,14.52l.22-.11c.16-.14.1-.16,0-.22C278.42,14.3,278.35,14.41,278.29,14.52Z" transform="translate(-1.63 -0.01)"/><polygon class="cls-1" points="272.89 13.15 272.94 13.18 273.93 12.8 272.89 13.15"/><path class="cls-1" d="M269,12.67c.1.05.61,0,.72.08C269.1,12.72,270.76,12.32,269,12.67Z" transform="translate(-1.63 -0.01)"/><polygon class="cls-1" points="211.36 334.77 230.93 338.54 212.89 349.73 211.36 334.77"/><path class="cls-1" d="M210.57,335.1c0-.09-.38,0-.46,0C210.22,335.21,210.68,335.08,210.57,335.1Z" transform="translate(-1.63 -0.01)"/><polygon class="cls-1" points="210.03 336.35 209.86 336.34 210.29 336.5 210.03 336.35"/><path class="cls-1" d="M211.78,337.64c.7-.2-.16-.45.07-.71l.16-.05-.59,0C211.54,337.1,212,337.42,211.78,337.64Z" transform="translate(-1.63 -0.01)"/><path class="cls-1" d="M210.32,338.47c.27-.07.25.13.07-.16l-.07,0A.55.55,0,0,1,210.32,338.47Z" transform="translate(-1.63 -0.01)"/><path class="cls-1" d="M210.32,338.34c0-.13-.22.11,0,0Z" transform="translate(-1.63 -0.01)"/><path class="cls-1" d="M210.54,339l-.27-.16c-.15.06-.18.22-.3.17C210.12,339.13,210.28,339.08,210.54,339Z" transform="translate(-1.63 -0.01)"/><path class="cls-1" d="M211.07,339.06,211,339C210.89,339,210.87,339,211.07,339.06Z" transform="translate(-1.63 -0.01)"/><path class="cls-1" d="M210.72,338.81l.24.17c.11,0,.34-.06-.09-.08C211.08,338.89,210.88,338.87,210.72,338.81Z" transform="translate(-1.63 -0.01)"/><path class="cls-1" d="M210.82,338.69c.14-.12.23-.26.49-.1C211.18,338.26,210.68,338.36,210.82,338.69Z" transform="translate(-1.63 -0.01)"/><path class="cls-1" d="M212.52,337.63l.2-.16-.25-.09C212.59,337.43,212.3,337.66,212.52,337.63Z" transform="translate(-1.63 -0.01)"/><path class="cls-1" d="M210.28,340.08a5.32,5.32,0,0,0,.59-.13l-.18-.11A.7.7,0,0,1,210.28,340.08Z" transform="translate(-1.63 -0.01)"/><path class="cls-1" d="M210.87,340l.28.17C211.16,339.94,211,339.92,210.87,340Z" transform="translate(-1.63 -0.01)"/><polygon class="cls-1" points="210.24 339 209.66 338.74 210.25 339.06 210.24 339"/><polygon class="cls-1" points="208.71 340.82 208.35 340.75 208.9 340.89 208.71 340.82"/><path class="cls-1" d="M210.45,341.32c-.29-.05-.48.16-.66.09.06.13.32.22.56.3C210.21,341.62,210.23,341.5,210.45,341.32Z" transform="translate(-1.63 -0.01)"/><path class="cls-1" d="M210.69,341.85a2.54,2.54,0,0,0-.34-.14A.78.78,0,0,0,210.69,341.85Z" transform="translate(-1.63 -0.01)"/><path class="cls-1" d="M211.11,340.46a.78.78,0,0,0-.41.2l.41-.12Z" transform="translate(-1.63 -0.01)"/><path class="cls-1" d="M211.13,340.53h0v.17Z" transform="translate(-1.63 -0.01)"/><path class="cls-1" d="M211.11,340.44v0S211.17,340.44,211.11,340.44Z" transform="translate(-1.63 -0.01)"/><path class="cls-1" d="M211.53,339.56c.25.09.53.31.87,0C212.1,339.55,211.91,339.7,211.53,339.56Z" transform="translate(-1.63 -0.01)"/><path class="cls-1" d="M211.63,340.29l.08-.22a.89.89,0,0,1-.4,0Z" transform="translate(-1.63 -0.01)"/><polygon class="cls-1" points="210.15 340.37 210 340.28 209.98 340.36 210.15 340.37"/><path class="cls-1" d="M211.05,341.46a.35.35,0,0,1,.26.27.51.51,0,0,0,.09-.37C211.27,341.36,211,341.33,211.05,341.46Z" transform="translate(-1.63 -0.01)"/><path class="cls-1" d="M211.13,341l0,0S211.2,341,211.13,341Z" transform="translate(-1.63 -0.01)"/><path class="cls-1" d="M211.42,342.82l.08,0h-.08Z" transform="translate(-1.63 -0.01)"/><path class="cls-1" d="M211.48,341.33c.08-.09,0-.14-.17-.17a.4.4,0,0,1,.09.2C211.47,341.36,211.51,341.36,211.48,341.33Z" transform="translate(-1.63 -0.01)"/><path class="cls-1" d="M210.92,342.14a1.42,1.42,0,0,0,.22-.18C211,342,210.81,342.13,210.92,342.14Z" transform="translate(-1.63 -0.01)"/><path class="cls-1" d="M211,341.06h0C210.93,341.09,211,341.08,211,341.06Z" transform="translate(-1.63 -0.01)"/><path class="cls-1" d="M211,341.06a1.18,1.18,0,0,0,.27.1.56.56,0,0,0-.16-.14Z" transform="translate(-1.63 -0.01)"/><path class="cls-1" d="M214.18,342.87c-.39,0-.78-.17-.38-.41a5,5,0,0,0-2.3.34.74.74,0,0,1,.58.15c.21-.09.46-.5.83-.37s-.11.24-.31.39c.48-.16.75.27,1.47.14l-.28-.21C213.9,342.88,214.09,343,214.18,342.87Z" transform="translate(-1.63 -0.01)"/><path class="cls-1" d="M211.5,342.4l-.06-.08c-.06.11-.21.19-.5.35a.85.85,0,0,0,.48.13l0-.42Z" transform="translate(-1.63 -0.01)"/><path class="cls-1" d="M211.4,342c.44,0,.64.2,1.09,0-.06-.24-.38-.14-.58-.27.15.39-.25-.09-.46.23a.51.51,0,0,1-.14-.21.91.91,0,0,1-.17.23h0c.05,0,.08,0,.06,0h.17c-.08.12-.11,0-.17,0h-.07l.28.37C211.49,342.23,211.47,342.13,211.4,342Z" transform="translate(-1.63 -0.01)"/><path class="cls-1" d="M213.35,339.72l-.1,0C213.3,339.76,213.34,339.77,213.35,339.72Z" transform="translate(-1.63 -0.01)"/><path class="cls-1" d="M213.1,339.91c-.06,0-.23,0-.2-.13s.21,0,.35,0a.41.41,0,0,0-.52,0l.06,0a1.6,1.6,0,0,1-.71.42A6.69,6.69,0,0,0,213.1,339.91Z" transform="translate(-1.63 -0.01)"/><path class="cls-1" d="M212.36,340.93l.25.31L213,341l-.22,0C212.81,340.86,212.54,340.93,212.36,340.93Z" transform="translate(-1.63 -0.01)"/><polygon class="cls-1" points="209.58 342.87 209.13 342.87 209.79 343 209.58 342.87"/><polygon class="cls-1" points="209.68 343.3 209.29 343.32 209.54 343.41 209.68 343.3"/><path class="cls-1" d="M225,340.42h0Z" transform="translate(-1.63 -0.01)"/><path class="cls-1" d="M224.76,340.57h.34A2.21,2.21,0,0,0,224.76,340.57Z" transform="translate(-1.63 -0.01)"/><path class="cls-1" d="M218,350.52c.21.3.53.78.45.3l-.1-.44C218.2,350.56,218.09,350.57,218,350.52Z" transform="translate(-1.63 -0.01)"/><path class="cls-1" d="M224.06,343.71l-.11-.09.14.4Z" transform="translate(-1.63 -0.01)"/><path class="cls-1" d="M223.19,342.14l.24.18Z" transform="translate(-1.63 -0.01)"/><path class="cls-1" d="M224.77,339.94l-1.15.23Z" transform="translate(-1.63 -0.01)"/><path class="cls-1" d="M212.17,350.12a2.78,2.78,0,0,0-.18.81C212.18,350.38,212.5,349.78,212.17,350.12Z" transform="translate(-1.63 -0.01)"/><path class="cls-1" d="M233.66,340.49a.66.66,0,0,0-.39-.06C233.33,340.48,233.44,340.5,233.66,340.49Z" transform="translate(-1.63 -0.01)"/><path class="cls-1" d="M212.05,351.53l.08-.24a.36.36,0,0,1-.14-.36C211.84,351.33,211.76,351.71,212.05,351.53Z" transform="translate(-1.63 -0.01)"/><path class="cls-1" d="M217.73,338.22s0,0,0-.06S217.71,338.22,217.73,338.22Z" transform="translate(-1.63 -0.01)"/><path class="cls-1" d="M214.52,333.14a.48.48,0,0,1,.17,0S214.62,333.1,214.52,333.14Z" transform="translate(-1.63 -0.01)"/><path class="cls-1" d="M211.39,345.91c0-.14,0,0,0,0Z" transform="translate(-1.63 -0.01)"/><path class="cls-1" d="M213,344.65a.41.41,0,0,0,.21,0A1,1,0,0,1,213,344.65Z" transform="translate(-1.63 -0.01)"/><path class="cls-1" d="M214.5,349h0C214.57,348.82,214.56,348.85,214.5,349Z" transform="translate(-1.63 -0.01)"/><path class="cls-1" d="M211.55,345.6a1.3,1.3,0,0,0-.1.25A1,1,0,0,0,211.55,345.6Z" transform="translate(-1.63 -0.01)"/><path class="cls-1" d="M211.36,345.71l0-.15C211.31,345.57,211.27,345.6,211.36,345.71Z" transform="translate(-1.63 -0.01)"/><path class="cls-1" d="M211.43,346.12a.84.84,0,0,1,0-.27s0,.07-.06.06Z" transform="translate(-1.63 -0.01)"/><path class="cls-1" d="M224.44,338.33l0,0C224.24,338.43,224.29,338.41,224.44,338.33Z" transform="translate(-1.63 -0.01)"/><path class="cls-1" d="M218.87,344.67v0h0Z" transform="translate(-1.63 -0.01)"/><path class="cls-1" d="M219,344.23c.16.53.06.51-.09.47l.75,1Z" transform="translate(-1.63 -0.01)"/><path class="cls-1" d="M225.3,340.11l-1,.14c-1.41.12-.92.07-2.2.23a7.88,7.88,0,0,1,1.67-.16,7.38,7.38,0,0,0,1.52-.06l-.65.07s-.13,0-.09,0c-1.42.12,2-.08,1.41.05a5.11,5.11,0,0,1-1,.05l.53.07c-.08,0-.51,0-.43,0l0,.11h-.07c.36,0,.88.1,1.08.14-.4,0-.22,0-.53,0l.44.11c-.64,0-1.12-.12-1-.15-1.22,0-1.06,0-.83,0s.56.11-.15.08l-.22-.07c-1.28-.11-.85,0-1.6-.15.19,0,.65.1,1.16.15s1.05.11,1.26.17c-.19,0-.29,0,.07.11-.73-.12-.59-.07-.61,0l-.9-.2c.22.08.67.19,1,.3a5.9,5.9,0,0,1-1.37-.3c-.2,0,1.08.27,1.12.39-.4,0-.12.09.14.38-.32-.06-.4-.21-.63-.29a5.46,5.46,0,0,1,.47.31.88.88,0,0,1-.26-.13c.14.15.64.36.69.53.32.22,0,.12-.3,0s-.55-.22-.31.1c-.17-.11-.29-.29-.49-.45.24.47.17.34.46,1l-.41-.24a2,2,0,0,1,.63,1.39,4.6,4.6,0,0,0,.44.35c-.06.17-.1.33-.14.49a1.15,1.15,0,0,1-.27-.53l0,.17a1.45,1.45,0,0,1-.48-.84l.32.27a4,4,0,0,0-.51-1.09.24.24,0,0,1,0,.2,1.06,1.06,0,0,0-.12-.24c0-.05,0,.09,0,.26l-.45-.56.14.25-.65-.12c.08.79.38,1.85.07,2.39a5.69,5.69,0,0,0-.75-1.27c.48.48.22-.46.53-.5-.16,0-.29-.25-.31-.35l-.12.77c-.26-.44-.29-.27-.52-.37.62.8,0,.76,0,1.13-.19-.27-.33-.59-.07-.66-.64-.49.31,1.19-.26.79,0,0,.11,0,0-.17,0,.33-.39.32-.48,0l0,0a1,1,0,0,0-.67,1.41c-.06-.09-.49-.9-.56-1.06l.89,2.82c-.33-.65-1.46-2-1.39-2.53a.31.31,0,0,0-.21,0s0,.05,0,.2a4.17,4.17,0,0,1,.58,1c-.53-.63-.33-.31-.75-.86.1.11.51,1.21.37,1.25-.05-.17-.4-1.08-.42-1.21a7,7,0,0,1,.14,1.24,6.1,6.1,0,0,0-.37-1.27c.07.22-.14.07-.16.21l.12.23c-.21-.07,0,1.88-.41,2.05a6.78,6.78,0,0,0,0-1.83,19.91,19.91,0,0,1-.29,2.13,7.91,7.91,0,0,1-.75,2.3l0-.38-.43.71c.24-.65.6-1.67.87-2.6a23.19,23.19,0,0,0,.53-2.26c0-.28,0-.47-.08-.38a2.51,2.51,0,0,1,.11-.64.51.51,0,0,1-.09-.18,16.15,16.15,0,0,1-.46,1.74,10.48,10.48,0,0,0,.41-1.07,9.72,9.72,0,0,1-.33,1.6c-.16.55-.39,1-.52,1,0-.33.45-1.69.51-2-.09.33-.33.73-.28.5l.21-.55c0-.32-.55,1.39-.37.52,0,0,.38-1.25.15-.64-.42,1.16-1.64,4.71-2.1,5.67a3.27,3.27,0,0,1,.09-1.36c.32-.91,1.17-2.41,1.42-3.18-.12.3-.33.69-.4.82.06-.22.42-.93.26-.73-.53,1.13-.19,0-.49,1-.18.26-.14.12-.13,0a.6.6,0,0,0,0-.23,8.84,8.84,0,0,1-1.47,2.31c.15-.26.34-.65.42-.83,0-.53.26-1.16.23-1.52a5,5,0,0,1,.56-.92c-.11.11-.32.34-.34.25.51-.84.1.1.72-.85a1.26,1.26,0,0,1-.75.52c-.54.68-.07.49.16.32-.74,1-1.55,1.75-2,1.56-.23-.25.48-.72.36-.68.07-.84-1.42.53-.94-.69.48-.64,1-.72,1.36-1,.22.13-.27.69-.23.89l.21-.45c.18,0,.32,0,.19.26.43-.56,0-1.16.35-1.84-.18,0-.37-.07-.58.09l.09.13c-.4.36-.61-.07-.78.24-.32-.11-.82-.29-.62-.76l.6-.22c-.18.05-.34.33-.14.39-.29-.11.76-.72,0-.74l-.39.34a5.3,5.3,0,0,1-.62-.4c-.19-.13-.31-.23-.23-.37-.59.18.07,0-.61.3.43-.1.43,0,.45.28s.05.47.49.18c-.78.46-.3.57-.94,1.2.2-.08.37-.28.31.12h.18l0,0,0,0s0,0,0,0a1,1,0,0,1,.28-.29c.47,0,.51.5.75.55-.07.22-.23,0-.42.24l.36.07c-.42.25-.65.95-1,.6l0,.47c-.21.42-.26.89-.06,1-.07.3.51.15.17.25l.32.46-.1.11c0,.37.22.54.33.79s.15.58-.16,1.49c.12.09.26.13.19.69l-.32.62c.14.1-.24,1.54.12,1a3.27,3.27,0,0,0-.37,1.72c.43-.29,1-.92,1.24-.92l.36-.82a5.29,5.29,0,0,0,1.18-1.11l.21-.65c.47-.73.62,0,1.16-.4-.08.25-.2.27-.25.18.13.52.55,0,.9-.43s.65-1,.89-.68c.15-.28.23-.27.33-.2l0,.05,0,0a1,1,0,0,0,.2.16.49.49,0,0,0-.17-.18,1.77,1.77,0,0,0,.41-.46l.11.5,0,0c.18.1.1-.33,0-.68a1.91,1.91,0,0,0,.16-.44c.24.77.31-.5.65.27,0-.48.68-.79.42-1.63,0,.1.11.13,0,.18.18,0,.38,0,.4-.3l.34.51a6.7,6.7,0,0,0-.08-.92,1.14,1.14,0,0,1,.62.86c0-.83.14-.4.06-1.2l.19.35c.1-.08,0-.64.22-.4.64.5,1.23-.64,2.2-.42-.73-.91.56.27.11-.51.18.21.35.29.37.56.17-.43.7.08.51-.7.18.21.15.38.27.5,0-.06,0-.26.09-.14s.08.22.09.36c.29-.24-.12-1-.52-1.67.36.21.39.13.27-.4.2.17.5.31.27.57.16-.06,1.23-.32.79-.79.16.09.24-.1.22-.18a2.28,2.28,0,0,0,.72-.4h-.18c-.56-.56.1-.26.27-.48l.07,0c1.16-.06-.06-.28,1.23-.33l-.58-.21c-.56-.26-.28-.25.15-.24s1,0,.94-.18l-.47,0c-.14-.12.42-.06,1.11,0a9.74,9.74,0,0,0,1.71,0c.18,0,.13.09.15.16,1.49-.21-.8-.24-.6-.54.58,0,1.16.29,1.57.11.29,0,.11-.23,0-.42s-.16-.38.6-.47a2.37,2.37,0,0,1-1.21-.1,5.88,5.88,0,0,1,1.16-.3c.47-.11.81-.24.15-.32l.45,0c-.18-.14,0-.44-.78-.46,1.8-.14,1.76-.35,1.58-.5s-.47-.24,1.3-.44l.49-.4.36,0c.69-.31-.06-.28-.85-.21a5.69,5.69,0,0,1,.85-.15c1-.35,1.25-.48.81-.5s-1,.09-1.79.18l1.23-.27c-.45.06-.19-.09-.14-.24s-.09-.3-1.12-.2a4.86,4.86,0,0,1,.59-.11c-1.08.08-.78-.21-.86-.42s-.42-.31-2.29.25l-1.33.19c.34.21-1.52.51-1.84.75-.37,0,.45-.47.88-.48l-.12.07c1.8-.61-.14-.37.94-.81a5.81,5.81,0,0,1-1.65-.55,8.58,8.58,0,0,0-1.68-.62l-.56.64-.37-.11c0-.17.35-.52.65-.43.2-.38-.86.19-1,.33-.37-.38.95-.69.78-.74h-.32v.09c-.46.22-.71.49-1.06.39-.13-.18.19-.43.11-.47s0-.08-.14-.05l-.56-.17a5.62,5.62,0,0,1-.09.57c-.4.21-.48-.12-.59.52.22-1-1.89-.73-1.79-1a.61.61,0,0,1-.82.21c.05.13,0,.78-.27.65.35-1.3-.34-.66-.36-1.64.06.66-.74,0-.63,1-.19-.15.08-.49,0-.83-.59.41-1-.55-1.67-.49a1.42,1.42,0,0,1-.17.69l-.16-.93c-.13.06-.3,1-.4.33,0,.16,0,.38-.09.42-1-1.07-2.58.22-3.49-1.6.1.37,0,.38-.15.37.07.1-.08.43-.11.66l-.38-.74c-.22.63-.56-.06-.73.55l.18-.08c-.35.69,0,1.68-.22,2.62.4-.79.39,1.35,1,.24.05.21-.14.29-.13.51.18-.38.31-.44.5-.22l0,.1c.64,0,.84.47,1.49.87l0-.48c.14.09.14.25.19.38.31-.67-.42-.12-.11-.87,0,1,1.07.22,1,1.32.23.05,0-.55.26-.5v.3l.13-.36c.14.09.15.47.11.72,0,0-.12,0-.17.06.14.38.58,0,.63.11l-.19-.22c.69-.15,1.39.38,2.12-.09v-.23c.55-.31.33.32.88.23l0,.05c.15-.2.31-.29.44-.23-.18.23.15.54-.08.79.6-.33.32-.29.82-1V338c.17-.31.24-.48.48-.53-.21.28,0,.57-.25,1,.06.42.18.24.34.1s.28-.21.07.35c.63-.92,0-.59.15-.78,0-.33.46-.69.56-.56s-.45,1.25-.25,1.26c0,0-.08.06-.09.06-.11.24.41-.29.19.11.55-.53.09.05.78-.62l-.4.11c.26-.16,1.25-.92,1.15-.48-.18.13-.46.29-.61.38s.29-.1.13.11c-.79.66-.46.09-1.09.58-.23.3.71-.45-.1.27.52-.45.55-.41.54-.35s-.06.16.47-.16l-.52.38a1.79,1.79,0,0,1,.42-.21l-.75.48c.69-.4-.38.4,0,.18-.16,0,.67-.45,1-.74,1.13-.43-1.39,1-.93.85a2.33,2.33,0,0,1,.65-.39,3.41,3.41,0,0,1-.65.42,13.2,13.2,0,0,0,1.22-.56c-.82.43.45-.16.87-.26l-.78.34c-.3.25,1.75-.69,1.38-.38l-1.27.44.41-.1-1,.37c.82-.26.69-.18.48-.06a11.08,11.08,0,0,1,1.87-.55c-.49.2-1,.28-.66.27-.66.18-1.44.42-.61.12l-.93.29c-.6.22,0,.07,0,.08a.5.5,0,0,1,.19-.08c.51-.13,1.05-.25,1.61-.37-.36.11-.71.19-1,.28.15,0,.67-.16.82-.17L224,340l1.09-.23c-.38.1-1,.28-1.38.35-.54.14,2-.39,1.33-.2l.57-.1-.46.13c-.31.07-.41.1.33,0l-1.83.31c.33,0,2.33-.4,2.84-.41a18.94,18.94,0,0,1-2,.32c.85-.11,2.41-.23,1,0C225.13,340.16,225.4,340.12,225.3,340.11Zm-.55.71c-.13,0-.59-.12-.12-.08C225.5,340.86,225,340.83,224.75,340.82Zm-1.62,2.37c0-.16.07-.14.24,0C223.34,343.23,223.27,343.25,223.13,343.19Zm-11.2,4.18h0C211.8,347.73,211.86,347.6,211.93,347.37Zm.15-.62a.26.26,0,0,0-.2.09c.12,0,.14.07.12.21C212.12,346.94,212.19,346.82,212.08,346.75Zm13.84-11.44v.13C225.64,335.52,225.78,335.42,225.92,335.31Z" transform="translate(-1.63 -0.01)"/><path class="cls-1" d="M223.29,342.32l.15.21A.39.39,0,0,0,223.29,342.32Z" transform="translate(-1.63 -0.01)"/><polygon class="cls-1" points="223.36 339.89 223.37 339.88 223.14 339.93 223.36 339.89"/><path class="cls-1" d="M216.39,346.27a3.75,3.75,0,0,1-.12.36A1,1,0,0,0,216.39,346.27Z" transform="translate(-1.63 -0.01)"/><path class="cls-1" d="M211,344.33l.16.32c0-.16.05-.24.12-.34C211.18,344.34,211,344.44,211,344.33Z" transform="translate(-1.63 -0.01)"/><path class="cls-1" d="M213.78,342.11c-.06,0,0-.06-.07-.08l-.23,0A.17.17,0,0,0,213.78,342.11Z" transform="translate(-1.63 -0.01)"/><path class="cls-1" d="M212.56,343.82c.41-.08.26-.19.17-.32v0C212.16,343.55,212.36,343.65,212.56,343.82Z" transform="translate(-1.63 -0.01)"/><path class="cls-1" d="M212.71,343.47a.15.15,0,0,1,0-.13C212.46,343.35,212.64,343.4,212.71,343.47Z" transform="translate(-1.63 -0.01)"/><path class="cls-1" d="M211.76,346.27c.09-.16-.51.18-.35,0C210.9,346.44,212.08,346.73,211.76,346.27Z" transform="translate(-1.63 -0.01)"/><polygon class="cls-1" points="212.25 343.54 211.76 343.64 212.17 343.68 212.25 343.54"/><path class="cls-1" d="M213.64,344.79l.11-.29a.19.19,0,0,1-.17,0C213.57,344.64,213.5,344.85,213.64,344.79Z" transform="translate(-1.63 -0.01)"/><path class="cls-1" d="M213.58,344.49c0-.09,0-.16-.11-.18A.33.33,0,0,0,213.58,344.49Z" transform="translate(-1.63 -0.01)"/><polygon class="cls-1" points="212.43 343.82 212.34 343.9 212.32 344.06 212.43 343.82"/><path class="cls-1" d="M213.82,347.51l.16.12c.15-.16.24-.34.17-.36S214,347.3,213.82,347.51Z" transform="translate(-1.63 -0.01)"/><path class="cls-1" d="M215,345.58a3.47,3.47,0,0,1-.34.4l.57-.51Z" transform="translate(-1.63 -0.01)"/><path class="cls-1" d="M215.19,346c.16-.14.47-.27.41-.42C215.45,345.72,215.3,345.68,215.19,346Z" transform="translate(-1.63 -0.01)"/><polygon class="cls-1" points="213.85 348.82 213.8 348.87 213.16 350.46 213.85 348.82"/><path class="cls-1" d="M217.83,344.51c-.09-.23,0,.73-.08.43,0,.3.09.24.07.49A1.67,1.67,0,0,0,217.83,344.51Z" transform="translate(-1.63 -0.01)"/><path class="cls-1" d="M217.82,345.43l0,.2A.81.81,0,0,0,217.82,345.43Z" transform="translate(-1.63 -0.01)"/><polygon class="cls-1" points="212.33 332.46 212.19 332.22 212.24 332.58 212.33 332.46"/><path class="cls-1" d="M213.46,333.15l.08-.65-.22.56C213.37,333,213.46,333,213.46,333.15Z" transform="translate(-1.63 -0.01)"/><path class="cls-1" d="M222.66,340.58l.23,0c.25.05.27.05.33,0Z" transform="translate(-1.63 -0.01)"/><polygon class="cls-1" points="222.21 340.41 222.18 340.41 223.37 340.36 222.21 340.41"/><path class="cls-1" d="M222.39,340.44l.18,0C222.32,340.45,224.19,340.18,222.39,340.44Z" transform="translate(-1.63 -0.01)"/><path class="cls-1" d="M82.41,344.39c.38.07.26-.36.33-.43C82.11,344,82.4,344.5,82.41,344.39Z" transform="translate(-1.63 -0.01)"/><polygon class="cls-1" points="73.96 344.48 74.1 344.32 73.04 344.58 73.96 344.48"/><path class="cls-1" d="M69.31,343.36c.45.83,2.29.33,3.36.78l.16.19.6-.48A19,19,0,0,1,69.31,343.36Z" transform="translate(-1.63 -0.01)"/><path class="cls-1" d="M66.32,341.15c.14.32-.76.08.75.25a.44.44,0,0,1-.12-.1A4.66,4.66,0,0,1,66.32,341.15Z" transform="translate(-1.63 -0.01)"/><path class="cls-1" d="M67,341.3c.65.13-.38-.32,0,0Z" transform="translate(-1.63 -0.01)"/><path class="cls-1" d="M63.92,340.77l.91,0c-.14-.2-.89-.42-.58-.47C63.35,340.19,63.48,340.39,63.92,340.77Z" transform="translate(-1.63 -0.01)"/><path class="cls-1" d="M63,341.08h.47C63.39,341,63.28,341,63,341.08Z" transform="translate(-1.63 -0.01)"/><path class="cls-1" d="M64.44,341.09h-1c.1.14.06.37.45,0C63.78,341.3,64,341.14,64.44,341.09Z" transform="translate(-1.63 -0.01)"/><path class="cls-1" d="M65,341.33c.44.26,1,.5.13.54C66.74,342.15,66.61,341.61,65,341.33Z" transform="translate(-1.63 -0.01)"/><path class="cls-1" d="M68.84,344l.62.34.61-.13C69.76,344.29,68.85,343.79,68.84,344Z" transform="translate(-1.63 -0.01)"/><path class="cls-1" d="M58.74,339c-.09.13.18.47.19.67h.67C59.3,339.52,58.72,339.25,58.74,339Z" transform="translate(-1.63 -0.01)"/><path class="cls-1" d="M58.93,339.7h-1C58.75,340,58.93,339.88,58.93,339.7Z" transform="translate(-1.63 -0.01)"/><path class="cls-1" d="M62.64,341.81l1.69-.16c-.66,0-1.33.08-2,.09Z" transform="translate(-1.63 -0.01)"/><polygon class="cls-1" points="53.59 337.94 54.22 337.77 53.13 337.99 53.59 337.94"/><path class="cls-1" d="M52.89,337.26c.47-.15-.37-.65.09-.68a5.58,5.58,0,0,0-1.81-.06A3.51,3.51,0,0,1,52.89,337.26Z" transform="translate(-1.63 -0.01)"/><path class="cls-1" d="M50.26,336.53a5.58,5.58,0,0,0,.91,0A3.48,3.48,0,0,0,50.26,336.53Z" transform="translate(-1.63 -0.01)"/><path class="cls-1" d="M56.36,339.15a1.06,1.06,0,0,0-.6-.64L56,339Z" transform="translate(-1.63 -0.01)"/><path class="cls-1" d="M56,339.05v0l-.78-.27Z" transform="translate(-1.63 -0.01)"/><path class="cls-1" d="M56.45,339.18l-.09,0C56.38,339.2,56.4,339.22,56.45,339.18Z" transform="translate(-1.63 -0.01)"/><path class="cls-1" d="M60.26,340.8c-.61.08-1.83,0-.81.66C59.92,341.29,59.34,340.92,60.26,340.8Z" transform="translate(-1.63 -0.01)"/><path class="cls-1" d="M56.75,339.83l1,.38c0-.11-.12-.32.18-.36Z" transform="translate(-1.63 -0.01)"/><polygon class="cls-1" points="54.6 339.8 55.12 339.82 54.77 339.67 54.6 339.8"/><path class="cls-1" d="M51.78,337.5a4,4,0,0,1-1.47-.27,10.13,10.13,0,0,0,1.63.7C52.06,337.83,52.38,337.69,51.78,337.5Z" transform="translate(-1.63 -0.01)"/><path class="cls-1" d="M53.81,338.31h-.1C53.76,338.35,53.8,338.38,53.81,338.31Z" transform="translate(-1.63 -0.01)"/><polygon class="cls-1" points="43.65 335.27 43.7 335.38 43.74 335.31 43.65 335.27"/><path class="cls-1" d="M52,338a1.3,1.3,0,0,0,1,.16,7.5,7.5,0,0,1-1-.27C51.89,338,51.87,338,52,338Z" transform="translate(-1.63 -0.01)"/><path class="cls-1" d="M48.78,336.21a5.92,5.92,0,0,0,.64.48C49.25,336.48,48.9,336.13,48.78,336.21Z" transform="translate(-1.63 -0.01)"/><path class="cls-1" d="M53.61,338.14h.06C53.57,338,53.57,338.06,53.61,338.14Z" transform="translate(-1.63 -0.01)"/><path class="cls-1" d="M53.61,338.14a3.16,3.16,0,0,0-.64.06,5.42,5.42,0,0,0,.74.1A.7.7,0,0,1,53.61,338.14Z" transform="translate(-1.63 -0.01)"/><path class="cls-1" d="M42.68,337.16c.24-.33,1.45-.19,2.25.58,1,.1.91-1.36.39-2.35-.09.14-.16.31-1.18.12.23.35,1.91,1.32,1,1.33-1.35-.32-1-.55-1.51-1,.33.68-1.87,0-1.89.75l1.2.25C42.89,336.94,42.42,336.93,42.68,337.16Z" transform="translate(-1.63 -0.01)"/><path class="cls-1" d="M47.1,336.15l.41.11a4.59,4.59,0,0,1-1.14-1c-.71-.08-.9,0-1,.11l1.89.81Z" transform="translate(-1.63 -0.01)"/><path class="cls-1" d="M49.27,336.91c-.46.29-1.47.12-1.05.77,1.17.4.94,0,1.69,0-1.9-.59.62,0-.64-.76a8.25,8.25,0,0,1,1,.27c-.32-.18-.62-.36-.89-.54l0,0h0c.07.08.08.12,0,.06h0a.41.41,0,0,1-.14.12c-.51-.28-.05-.13.14-.12l0-.05h0c-.65-.16-1.3-.3-1.94-.47A8.85,8.85,0,0,0,49.27,336.91Z" transform="translate(-1.63 -0.01)"/><path class="cls-1" d="M58.16,342.07a.12.12,0,0,1,0-.12C58,342,57.93,342,58.16,342.07Z" transform="translate(-1.63 -0.01)"/><path class="cls-1" d="M57.44,341.59a1,1,0,0,1,.77,0c.36.24-.06.2-.08.34.31,0,1,0,.24-.47l-.15,0c-.74-.36-1.59-1.16-1.44-1.18A2.93,2.93,0,0,0,57.44,341.59Z" transform="translate(-1.63 -0.01)"/><path class="cls-1" d="M53.2,339.41l-1.65-.33.69.62,0-.22C53.14,339.86,53,339.54,53.2,339.41Z" transform="translate(-1.63 -0.01)"/><path class="cls-1" d="M45.18,335l.38-.33c-.38.08-.75.16-1.13.22C44.68,335,44.93,335,45.18,335Z" transform="translate(-1.63 -0.01)"/><polygon class="cls-1" points="41.57 334.2 41.8 333.87 41.19 333.87 41.57 334.2"/><path class="cls-1" d="M16.22,231.17l.22-.48A2.25,2.25,0,0,0,16.22,231.17Z" transform="translate(-1.63 -0.01)"/><path class="cls-1" d="M14,234.14l.11.19C14.13,234.13,14.1,234,14,234.14Z" transform="translate(-1.63 -0.01)"/><path class="cls-1" d="M9,298.39c.19-.76.6-1.66.18-1.48l-.38.31A2.87,2.87,0,0,1,9,298.39Z" transform="translate(-1.63 -0.01)"/><path class="cls-1" d="M4.78,262.43l-.17.18.32.55Z" transform="translate(-1.63 -0.01)"/><path class="cls-1" d="M3.11,261.6l.45-.9A3.89,3.89,0,0,0,3.11,261.6Z" transform="translate(-1.63 -0.01)"/><path class="cls-1" d="M30.05,216.52l.19-.71C29.51,216.39,30,216.31,30.05,216.52Z" transform="translate(-1.63 -0.01)"/><path class="cls-1" d="M24.58,323.14a10.41,10.41,0,0,0-1-1.17C24,322.65,24.2,323.29,24.58,323.14Z" transform="translate(-1.63 -0.01)"/><path class="cls-1" d="M19,235.07c.12-.28.12-.44,0-.49C19,234.87,18.91,235.05,19,235.07Z" transform="translate(-1.63 -0.01)"/><path class="cls-1" d="M22.36,320.81a2.69,2.69,0,0,0,.16.29,6,6,0,0,1,1.1.87A2.1,2.1,0,0,0,22.36,320.81Z" transform="translate(-1.63 -0.01)"/><path class="cls-1" d="M95.91,188.38h.17C96.08,188.33,96,188.34,95.91,188.38Z" transform="translate(-1.63 -0.01)"/><path class="cls-1" d="M117,189.28a8.32,8.32,0,0,1-.83.14A2.71,2.71,0,0,0,117,189.28Z" transform="translate(-1.63 -0.01)"/><path class="cls-1" d="M35.61,330.25c.41.19.09,0,0,0Z" transform="translate(-1.63 -0.01)"/><path class="cls-1" d="M36.74,332.8a.31.31,0,0,0-.26.1A.41.41,0,0,1,36.74,332.8Z" transform="translate(-1.63 -0.01)"/><path class="cls-1" d="M17.25,319.49l0,0C17.26,319.62,17.25,319.59,17.25,319.49Z" transform="translate(-1.63 -0.01)"/><path class="cls-1" d="M36.11,330.74a4.48,4.48,0,0,0-.44-.38A3.88,3.88,0,0,0,36.11,330.74Z" transform="translate(-1.63 -0.01)"/><path class="cls-1" d="M36.13,330.52l.33.22C36.54,330.71,36.52,330.64,36.13,330.52Z" transform="translate(-1.63 -0.01)"/><path class="cls-1" d="M35.06,330a5.35,5.35,0,0,1,.61.4c-.07-.07-.09-.11-.06-.11Z" transform="translate(-1.63 -0.01)"/><path class="cls-1" d="M59.64,200.88h.11C60.11,200.53,59.93,200.64,59.64,200.88Z" transform="translate(-1.63 -0.01)"/><path class="cls-1" d="M2.45,287.34l0,.05v-.07Z" transform="translate(-1.63 -0.01)"/><path class="cls-1" d="M1.92,285.68a1.73,1.73,0,0,1,.56,1.64l1.18-.71Z" transform="translate(-1.63 -0.01)"/><path class="cls-1" d="M21.9,224.39c-.38.19-.74.4-1.11.61.52-1.53,1.47-2.1.26-1.68.84,1-3.15,3.57-2.2,4.63l-.73.42c.15-.16.12-.24.27-.41-1.49.79,0,1.5-1.38,2.93-.5.49-1,.75-.79.28l-.67,1.43c-.3.34-.42.12-.13-.22-.46.63-.86,1.32-1.28,2l0,0a12,12,0,0,1-.27,1.59c-.5.38.05-.33-.18-.3-.16.42-.3.84-.43,1.27-.57.27-.32-.85.25-1.56-1.83.26-.3,1.09-2.37,2.91l.5-1.14c-1.07.28-1.37,1.24-2.46,2.27.19-.09.8-.57,1.3-.84s.95-.3.72.39a2.72,2.72,0,0,0-.72,1.54c-.42-.23-.68.49-1.11,1.32l-.54-.35c-.31,1,0,1.08,0,1.74a1.74,1.74,0,0,1-1.6,1.06c-.88,1.6,1.27-.8.45,1.19a9.66,9.66,0,0,0-1.28,4.18c-.57.91-.31-.31-.61,0L6,250.64c-.09.21-.22.09-.28,0-.08.81.58.28.33,1.49.54.51-1.71,2.1-1.39,3.78-.28.32-.33-.27-.6-.23a14.36,14.36,0,0,0,.23,3.66c-.26.44-.48.89-.7,1.34.66-1,1,.5,1.22,1.73.29-.33.55-.6.68-.79v1.88c-.15.2-.33,0-.54-.36q0,.21.09.36c-.35.62-.66.23-.92-.31.16-.2.34-.4.51-.6-.3-.52-.64-1-1-1a1.92,1.92,0,0,1,.06.64c-.08-.13-.16-.23-.23-.18s0,.27.13.6l-.79.31.26.15c-.3.79-.52,1.61-.79,2.42.45,1.87,1.41,3.5,1.5,6.28-.48-.71-.85-.19-1.46-.26.71-.73-.12-2.2.13-3.66-.13.76-.41.56-.5.36l.4,2.66c-.49-.09-.44.53-.66,1.21,1-.47.62,2,.9,3-.34.06-.68-.2-.56-1.5-.77,1.43,1.09,1.87.5,3.26,0-.32,0-.49-.14-.61.32.73.13,2.53-.17,2.12l0-.31c-.14,2.11.4,6.38,1.24,6.6a4.33,4.33,0,0,1-1.22-.28c1.06,1.15,2.19,2.27,3.27,3.35-.76-.23-2.33,1.25-2.95-.42a4.31,4.31,0,0,0,.3,2.15c.06-.35.94-1,1.06-.54a9.32,9.32,0,0,0-.72,2.6c.07-.53,1.3-.16,1.39.63-.19-.09-1.1.26-1.27,0L4.68,294c-.27-.45-1,.1-1.17.6.17-.25.34,1.7.57,2.2l.07-.88c.33,2.25,2,1.85,2.47,4-.29-.2-1.56-.3-1.4.85.34.18,1.16.57,2,1.11a9.6,9.6,0,0,1,1.22.93,6.89,6.89,0,0,1,.52.56,5,5,0,0,1,.49.56l-.18.45.89,1.2a16.69,16.69,0,0,1-2.5-1.5,15.71,15.71,0,0,1-2.29-2.16c0,.9-.31.34,0,1.58-.18.53-.63-.55-.74-.91a19.55,19.55,0,0,0,.7,3c.59-.34,1.53,2,2,1.67-.63-.94-1.28-1.91-1.89-2.89.57-.3,2.51,1.18,3.17,3.15,0,.6-1.26.12-1.44.24a5.07,5.07,0,0,1,1.23,1.9L7.71,309c.33,1.19,1.63,1.36,1.78,2.91.22.44,0,1.71.41,1.58a3.83,3.83,0,0,1,3-2.28c0,.15.62,2.49.68,3.12,0,1-1.88-.16-1.92.68.17-.08.62.16.79.26.17.51-.59.16.13,1,.66-.25,1.29,1.88.78.09.78.77.55,1,1.4,2,.09-.58,1.89-.08,2.7.59-.16.06-.18.4-.18.55,1.47,1.6,2,2.72,3.56,4.08,0,.25.63,1.07.12,1a2.83,2.83,0,0,1,1.14.53c.28.61,0,.41-.33.19s-.67-.49-.56.1c.3-.22,1.64.63,2.49,1,.18-.66-1.57-1.36-2.38-1.82.28-.32.84-.36,1.58-.23a8.6,8.6,0,0,1,2.59.95c1.42.86.24.87.53,1,2.47,1.95,3,.38,4.79,2.28.57,1-.53.92-.55,1.37-1.26-.59-1.6-1.4-2.34-1.94.26.29.51.59.79.86a3.11,3.11,0,0,1-1.6-.94c.4,1,4.37,3.09,6.28,4.67.47.07,1.21.27,1-.09l-.71-.33c-.39-.73,1.55.22.81-.45a7.53,7.53,0,0,1,3.44,1.23l0,.67c.05-.17-.67-.77-1.11-.79.64.05,1.59,1.76,2.55,1.32l-.72-.82a8.83,8.83,0,0,1,3.54.83c-.27-.78-.3,0-.81-1.07.32,1.13-2.89-1.44-2.17-.06-.47-1.13-1.27-1-2-2.22-.06.2.19.55-.69,0a1.35,1.35,0,0,1-.29.05l-.06-.05,0,.05s-.06,0,0,0a1.21,1.21,0,0,1,.33.52,3,3,0,0,1-1.42-.27,8.3,8.3,0,0,0-1.35-.49c-.5-.4.34-.07.15-.43L33,330c.16-.43-1.05-1.48.36-1-.38-.23-.76-.45-1.12-.7a4.91,4.91,0,0,0-2-1.51c-.47-.4-1.56-.49-.93-.46l-1.84-1,.06-.11c-.83-.59-1.73-1.14-2.64-1.75a6.61,6.61,0,0,1-2.32-2.45,6.11,6.11,0,0,1-1.9-1.67l.13-.43a7.61,7.61,0,0,1-1.1-1.27c-.37-.46-.65-.9-.93-.91.1-.7-.53-1.52-1.27-2.35a24.55,24.55,0,0,1-1.86-2.4l-.46.24a19,19,0,0,0-2-2.69l-.35.29a4.37,4.37,0,0,1-.95-1.88c-.24-.78-.55-1.63-.86-2.44.2,0,.31.47.35.8a4.92,4.92,0,0,0-1.11-3,5.23,5.23,0,0,1-.94-3A1.75,1.75,0,0,1,9,299.19a.37.37,0,0,0,0,.11.81.81,0,0,0,0-.19c0-.23,0-.47.06-.72a2.5,2.5,0,0,0-.09.61c-.11-.36-.3-.9-.53-1.44l.42-.34,0-.13c.06-.58-.32-.39-.61,0a2.88,2.88,0,0,0-.44-.67c.67-.61-.57-1.42.11-2.19-.51-.29-.8-2.75-1.7-2.91.11,0,.13-.22.19.09A3.46,3.46,0,0,0,6,289.57l.56-.36c-.36-.42-.67-.84-1-1.27.26-.89.44-1.26,1-.49-1-1.91-.49-1.59-1.38-3.23l.4,0c-.06-.61-.67-1.55-.37-1.95.57-1.41-.24-6.83.62-10.32-1.21.62.64-1.59-.25-1.78.29-.19.49-.66.68-.08A7.82,7.82,0,0,1,6.45,268a2.6,2.6,0,0,0-.12-1.77c.3-.17.35.42.54.27,0-.15-.17-.59,0-.75s.19.28.28.57c.18-1.78-.64-2.1-1.4-2.35A1.75,1.75,0,0,0,6,261.89c.31-.27.68-.75.57.39l.54-2.14c.22-.87.34-1.7,0-1.81.2-.15.25-.86.22-1,.4-1.38.53-1.48.86-2.85l-.21.34c-.56-.76.14-1.19.46-2.29l.06.06c1.43-2.27.09-1.19,1.65-3.35l-.5,0c-.43-.3-.07-.78.43-1.37a5.32,5.32,0,0,0,1.29-2l-.48.37c0-.9,2.25-1.45,2.73-2.1.16-.11,0,.31,0,.57,1.52-1.58-.44-.54.19-2,.44-.09.58.74,1.14-.15.45-.33.62-3.21,1.95-4.1-.39.13-.78.26-.55-.48.59-1,2.51-2,2.49-3.25.15-.07.24-.07.29,0,.35-.82,1.43-2.46,1.44-3.13.91.23,1.58-1,2.27-2s1.3-2.08,1.84-1.55c.6-.66,1.22-1.3,1.83-1.95l.06.16a4.59,4.59,0,0,0,1.68-2.47c.36-.2.24.11.27.19,2.05-1.48,2.22-1.63,3.33-3.6l.49.25a7.52,7.52,0,0,1,1.95-1.29,11.28,11.28,0,0,0,3-2.26.43.43,0,0,1-.09.35A12.58,12.58,0,0,1,41,214.92c1.31-.61,2.33-1.25,2.3-2.27l1.34-1.33c-2.11,1.11-.1-.86-1.1-.61.76-.58,2.37-.79,1.43-.11l-.21,0c.11,1,2.74-1.2,3-.6,4.06-2.34,8.39-3.87,12.41-5.58l-.76-.47,1.42-.58c.44,0,.72.31-.29.72.68.14,1.55-1,1.51-1.19,2.09-.55-.44,1.11.18.87l.79-.39h-.21c.55-.55.48-.89,1.71-1.34.83-.16.57.27.88.17,0,.05.13,0,.47-.16.61-.21,1.21-.44,1.82-.64l-.93-.26c.7-.58,1.72-.61.65-.91,1.57.45,6.91-2.1,7.79-2a9.62,9.62,0,0,1,3.56-1.52c-.38,0-.79-.57.45-.86,0,1.42,2.4-.11,3.65.55-1.06-.37,3.42-1.12,1.79-1.61,1.06-.17.2.46,1,.56,2.3-1.16,5.45-1.06,8.43-1.92,0-.18-.56-.33,0-.73l1.79.5c.58-.21.34-1.11,1.56-.74-.18-.12-.46-.28-.07-.43,6.11-.41,12.15-3,18.5-2.18-.87-.24-.32-.34.31-.43-.42,0,0-.43-.15-.66l2.64.36c.4-.71,2.74-.32,3-1l-.8.19c1-.85-1.68-1.51-1.62-2.47-1.14,1-3.4-.9-5.27.58-.47-.14.34-.36.07-.55a2.74,2.74,0,0,1-2.23.62l.12-.12c-3.19.56-4.62.38-8.26.74l.34.42a3.75,3.75,0,0,1-1.35-.09c-.75.86,2.17-.35,1.51.58-1.2-.79-5.42,1-6.32.07-1.18.24.46.46-.72.7l-.38-.22-.22.44c-.78.1-1.25-.18-1.33-.42a4.34,4.34,0,0,0,.72-.24c-1.09-.14-2.81.74-3.17.7l1.17-.08c-3.15,1-7.15,1.58-10.06,3l.29.15c-2.22,1.06-1.94.27-4.44,1.21l.08-.08a5,5,0,0,1-1.8.86c.56-.45-1.36-.11-.6-.65-2.38,1.22-1.15.72-2.54,2l-.5-.23a3.07,3.07,0,0,1-1.67,1.2c.93-.64-1-.26,0-1.05-2.92.14-3.65,2.13-5.25,1.47-.85,1.4,2.46-.31,1.87.15.67.11-.74,1.08-1.59,1.29s-1.88-.71-4,.14c.21-.08.2-.16.41-.23-.88.07-1.41.92-2.52.93-.29.8-1.25.49-1.1,1.28l1.83-1c-1,.65-1.65,1.89-3.57,2.26a3.58,3.58,0,0,1,.82-.9c-.61,0-.93.58-1.56.6-.17-.8,2.22-1.17,3.15-2.2-.69-.07-2,1.45-1.72.41-.4,1.36-2.09.78-3.15,2.15l-.1-.47a3.64,3.64,0,0,1-1,.76l.47-.9c-.89,1-2.36.6-3.31,1.38,2.24-1.09.75.27,1.85.13-2.48,1.89-2.13-.35-5.11,1.41.38-.29,1.69-.54,1.14,0a6.6,6.6,0,0,1-2,.42c-2,1.16.54.27-.18,1-1-.14-.89.72-1.66,1.38l-.24-.42c-2.41,1-.1,1.21-2.31,2l.52-1.07-1,.76-.06-.6a5.58,5.58,0,0,1-2.53,1.7c.44.14.31.83-.64,1.47-.81.18.12-.63-1.21.31.14-.45.28-1,1.12-1,0-.17.14-.45.12-.62A7.52,7.52,0,0,0,38,210.9a2.27,2.27,0,0,1,.6-.26c-.55.61-1.07,1.24-1.59,1.88-.41.06-.25-.23-.09-.51a14.63,14.63,0,0,1-1.07,1.12,1.14,1.14,0,0,1,.38-1.45c-.54.55-1.09,1.09-1.62,1.65-.22-.05-1.21.32-1.06,0a6.14,6.14,0,0,0-1.64,1.54,6.69,6.69,0,0,1-1.87,1.73,1.26,1.26,0,0,1-.35.55c-1.26.93-2.66,1.47-3.68,3.12l-1.26.21c-1,1.11,1.66-.33.05,1.52-1.08,1.34-.87,0-1.45.29A5.62,5.62,0,0,1,21,225.48,7.15,7.15,0,0,1,21.9,224.39Zm-10.7,14.5c.1-.35.2-1.11.58-1.18C12,238.34,11.66,238.46,11.2,238.89Zm-7.75,26a1.31,1.31,0,0,1,.24-1.08A2.53,2.53,0,0,1,3.45,264.85ZM31.19,328h0C30.64,327.48,30.82,327.68,31.19,328Zm1.17,1c.17,0,.19,0,.17-.13s-.45-.13-.75-.37C31.8,328.71,31.92,328.89,32.36,329Zm33.1-127h-.33C65.71,201.62,65.58,201.81,65.46,202Z" transform="translate(-1.63 -0.01)"/><path class="cls-1" d="M3.3,261.71a.46.46,0,0,1,.28-.1C3.53,261.46,3.43,261.44,3.3,261.71Z" transform="translate(-1.63 -0.01)"/><path class="cls-1" d="M30,216.65l0,0a.16.16,0,0,0,0-.1Z" transform="translate(-1.63 -0.01)"/><path class="cls-1" d="M11.81,315.66a1.7,1.7,0,0,1-.18-.67C11.53,315,11.53,315.22,11.81,315.66Z" transform="translate(-1.63 -0.01)"/><path class="cls-1" d="M39.84,332.2l-.93-.31a1.87,1.87,0,0,1,.72.53C39.66,332.31,39.56,332.08,39.84,332.2Z" transform="translate(-1.63 -0.01)"/><path class="cls-1" d="M46.53,338.39c.16,0,.29.11.45.11l0-.22C46.44,338.06,46,338.06,46.53,338.39Z" transform="translate(-1.63 -0.01)"/><path class="cls-1" d="M40,334c-.1.4.52.55,1.18.79a.39.39,0,0,1-.11-.06C41.45,334.35,40.71,334.2,40,334Z" transform="translate(-1.63 -0.01)"/><path class="cls-1" d="M41.29,334.88a4,4,0,0,1,.6.25C42.06,335,41.67,335,41.29,334.88Z" transform="translate(-1.63 -0.01)"/><path class="cls-1" d="M34.17,329.79c.23.26.44-.34.51-.11C35.25,329.42,32.5,329.13,34.17,329.79Z" transform="translate(-1.63 -0.01)"/><polygon class="cls-1" points="38.27 335.49 38.26 334.92 37.73 335.12 38.27 335.49"/><path class="cls-1" d="M35.12,332.66l.92.65c0-.09.17-.06.35,0C35.78,333,35.16,332.51,35.12,332.66Z" transform="translate(-1.63 -0.01)"/><path class="cls-1" d="M36.39,333.3a3,3,0,0,0,.83.35A5.18,5.18,0,0,0,36.39,333.3Z" transform="translate(-1.63 -0.01)"/><polygon class="cls-1" points="36.82 334.95 36.56 334.71 35.87 334.33 36.82 334.95"/><path class="cls-1" d="M25.09,326l-1-.66c-.2.06,0,.35.39.58S25.13,326.26,25.09,326Z" transform="translate(-1.63 -0.01)"/><path class="cls-1" d="M27.28,329.33a1.22,1.22,0,0,1-.23-.64l-.39.49Z" transform="translate(-1.63 -0.01)"/><path class="cls-1" d="M24.26,327.29c-.2.06-1.72-.76-.46.21C24,327.46,25.07,328.12,24.26,327.29Z" transform="translate(-1.63 -0.01)"/><polygon class="cls-1" points="10.52 313.08 10.69 313.35 11.52 312.76 10.52 313.08"/><path class="cls-1" d="M3.73,298.49c.08,1.51.67.2.71,1.59.32.28,0-1.14.25-.84C4.25,298.43,4.3,297.93,3.73,298.49Z" transform="translate(-1.63 -0.01)"/><path class="cls-1" d="M4.69,299.24a4.11,4.11,0,0,0,.27.41A2.54,2.54,0,0,0,4.69,299.24Z" transform="translate(-1.63 -0.01)"/><polygon class="cls-1" points="118.84 189.46 119.77 189.58 119.15 189.29 118.84 189.46"/><path class="cls-1" d="M122.16,188.56l.26.63.49-.63C122.73,188.6,122.33,188.69,122.16,188.56Z" transform="translate(-1.63 -0.01)"/><path class="cls-1" d="M8.75,240.62l.1.14c.23,0,.35-.25.59-.63Z" transform="translate(-1.63 -0.01)"/><polygon class="cls-1" points="14.83 229.79 14.68 229.97 15.4 230 14.83 229.79"/><path class="cls-1" d="M23.41,221.11c-.35.29-.63.77-1,1.07C23.06,221.4,24,221.55,23.41,221.11Z" transform="translate(-1.63 -0.01)"/></g></g></svg>