<svg width="19" height="18" viewBox="0 0 19 18" fill="none" xmlns="http://www.w3.org/2000/svg">
<path d="M0 0H19V18H0V0ZM17.4444 13.7081C17.3054 12.8846 16.739 12.1961 15.0664 11.5521C14.4851 11.2944 13.8356 11.1128 13.6438 10.6965C13.5725 10.4501 13.5601 10.3157 13.6064 10.1689C13.7269 9.68231 14.3302 9.53887 14.8063 9.67387C15.1157 9.76444 15.4001 9.98719 15.5794 10.3477C16.3988 9.84094 16.3988 9.84094 16.9682 9.504C16.755 9.19069 16.6499 9.05287 16.5045 8.92125C16.0063 8.39081 15.3419 8.12137 14.2625 8.145L13.7026 8.2125C13.1676 8.33569 12.6576 8.60513 12.3482 8.96569C11.4481 9.93263 11.7082 11.6201 12.7995 12.3204C13.8789 13.0849 15.4589 13.2519 15.6631 13.9731C15.8519 14.8522 14.9738 15.1335 14.1045 15.0306C13.4645 14.8956 13.1088 14.5913 12.7158 14.0288L11.2682 14.8168C11.4321 15.1774 11.6238 15.3326 11.9082 15.6487C13.2846 16.9644 16.7295 16.8969 17.3476 14.8956C17.369 14.8281 17.5364 14.3651 17.4064 13.6592L17.4444 13.7081ZM10.3318 8.27325H8.55356C8.55356 9.72619 8.54406 11.1707 8.54406 12.627C8.54406 13.5501 8.59334 14.3994 8.436 14.6604C8.17297 15.1762 7.50203 15.1116 7.19566 15.021C6.88334 14.8748 6.72244 14.6722 6.54016 14.3792C6.48731 14.2999 6.4505 14.2329 6.43803 14.2329L4.99403 15.0767C5.23509 15.5486 5.58778 15.9559 6.04259 16.2135C6.72006 16.5971 7.62909 16.7203 8.58147 16.5184C9.20016 16.3485 9.73513 15.9998 10.013 15.4609C10.4179 14.7634 10.3313 13.9084 10.3283 12.9499C10.3378 11.4086 10.3283 9.86794 10.3283 8.31487L10.3318 8.27325Z" fill="white"/>
</svg>
