<svg width="16" height="13" viewBox="0 0 16 13" fill="none" xmlns="http://www.w3.org/2000/svg">
<path d="M0 0.263829C0.866029 0.112878 2.06661 0 3.69985 0C5.47123 0 6.77009 0.357866 7.61653 1.03604C8.40374 1.65791 8.91557 2.65632 8.91557 3.84327C8.91557 5.04907 8.52206 6.04764 7.77417 6.72599C6.80982 7.64912 5.29436 8.08248 3.58212 8.08248C3.12942 8.08248 2.71605 8.06368 2.40104 8.00703V12.7927H0V0.263829ZM2.40104 6.17975C2.69641 6.25521 3.0901 6.27383 3.58212 6.27383C5.39264 6.27383 6.49472 5.42616 6.49472 3.93757C6.49472 2.52464 5.47123 1.77084 3.79831 1.77084C3.12942 1.77084 2.65709 1.82749 2.40104 1.8841V6.17975ZM9.44587 6.29268C9.44587 4.67236 10.8434 3.40995 13.0675 3.40995C14.1301 3.40995 15.0553 3.67378 15.6061 3.95641L15.1339 5.59548C14.7205 5.36929 13.9528 5.06808 13.1068 5.06808C12.241 5.06808 11.7684 5.4638 11.7684 6.02863C11.7684 6.61312 12.2211 6.89553 13.4414 7.31005C15.1732 7.91295 15.9799 8.76083 16 10.1171C16 11.7751 14.642 13 12.1028 13C10.9417 13 9.89852 12.7172 9.19036 12.3405L9.66247 10.6637C10.2136 10.9842 11.2568 11.3229 12.1228 11.3229C13.1856 11.3229 13.6576 10.9086 13.6576 10.3059C13.6576 9.68396 13.2642 9.36352 12.0835 8.96779C10.2136 8.34627 9.42642 7.36632 9.44587 6.29268V6.29268Z" fill="white"/>
</svg>
