<svg width="44" height="33" viewBox="0 0 44 33" fill="none" xmlns="http://www.w3.org/2000/svg">
<path d="M7.33333 0C3.28324 0 0 3.28324 0 7.33333V25.6667C0 29.7169 3.28324 33 7.33333 33H25.6667C29.7169 33 33 29.7169 33 25.6667V23.8333L39.6 28.7833C41.4128 30.1429 44 28.8497 44 26.5833V6.41674C44 4.15063 41.4128 2.85707 39.6 4.21674L33 9.16674V7.33333C33 3.28324 29.7169 0 25.6667 0H7.33333ZM33 13.7501L40.3333 8.25007V24.75L33 19.2501V13.7501ZM29.3333 7.33333V25.6667C29.3333 27.6918 27.6917 29.3333 25.6667 29.3333H7.33333C5.30831 29.3333 3.66667 27.6918 3.66667 25.6667V7.33333C3.66667 5.30831 5.30831 3.66667 7.33333 3.66667H25.6667C27.6917 3.66667 29.3333 5.30831 29.3333 7.33333Z" fill="white"/>
</svg>
