<svg width="60" height="60" viewBox="0 0 60 60" fill="none" xmlns="http://www.w3.org/2000/svg">
<path d="M45.8209 21.4807C46.8515 23.2807 48.058 25.6025 48.058 28.948C48.058 31.2698 47.3666 34.1849 45.997 37.7067L43.2905 46.7327L33.5016 17.6199C35.1385 17.5286 36.5994 17.359 36.5994 17.359C38.0603 17.1896 37.8842 15.0438 36.4298 15.1286C36.4298 15.1286 32.0407 15.4743 29.2103 15.4743C26.5482 15.4743 22.0782 15.1286 22.0782 15.1286C20.6173 15.0438 20.4485 17.2742 21.9047 17.359C21.9047 17.359 23.2886 17.5286 24.7495 17.6199L28.9624 29.1828L23.0396 46.9545L13.1742 17.6199C14.8078 17.5286 16.2766 17.359 16.2766 17.359C17.7373 17.1896 17.5594 15.0438 16.103 15.1286C16.103 15.1286 11.7185 15.4743 8.88231 15.4743C8.37551 15.4743 7.77805 15.4613 7.14089 15.4417C11.9853 8.08525 20.3108 3.23312 29.7712 3.23312C36.821 3.23312 43.245 5.92648 48.058 10.3418C47.9471 10.3352 47.8297 10.3222 47.7123 10.3222C45.0449 10.3222 43.1602 12.6374 43.1602 15.1286C43.1602 17.359 44.4515 19.2503 45.8209 21.4807ZM51.6644 29.809C53.2036 25.9416 53.7252 22.8568 53.7252 20.1047C53.7252 19.1134 53.6536 18.1874 53.5362 17.3199C55.6492 21.1807 56.8557 25.6089 56.8557 30.3177C56.8557 40.3087 51.4361 49.0348 43.3884 53.724M29.7712 57.4022C27.1103 57.4022 24.5446 57.0174 22.118 56.2999L30.2472 32.6916L38.5754 55.4978C38.6276 55.6282 38.6928 55.7522 38.7646 55.863C35.9537 56.8608 32.9211 57.4022 29.7712 57.4022V57.4022ZM2.68527 30.3177C2.68527 26.3915 3.53111 22.6613 5.03186 19.2895L17.9513 54.6892C8.91814 50.3066 2.68527 41.0392 2.68527 30.3177V30.3177ZM0.423014 30.3177C0.423014 46.524 13.5608 59.6652 29.7712 59.6652C45.9775 59.6652 59.1188 46.524 59.1188 30.3177C59.1188 14.1113 45.9775 0.970093 29.7712 0.970093C13.5608 0.970093 0.423014 14.1113 0.423014 30.3177Z" fill="black"/>
</svg>
