<svg width="41" height="40" viewBox="0 0 41 40" fill="none" xmlns="http://www.w3.org/2000/svg">
<g style="mix-blend-mode:difference">
<path d="M20.1268 0C17.4898 0 14.8787 0.519389 12.4425 1.52851C10.0062 2.53763 7.79259 4.01673 5.92798 5.88134C2.16221 9.64711 0.0466309 14.7546 0.0466309 20.0802C0.0466309 28.9556 5.80964 36.4857 13.7815 39.1563C14.7855 39.317 15.1068 38.6945 15.1068 38.1523C15.1068 37.6905 15.1068 36.4254 15.1068 34.7588C9.54455 35.9636 8.35982 32.068 8.35982 32.068C7.43613 29.7387 6.13092 29.1162 6.13092 29.1162C4.30363 27.8713 6.27148 27.9114 6.27148 27.9114C8.2795 28.052 9.34375 29.9797 9.34375 29.9797C11.0907 33.0319 14.0425 32.1283 15.1871 31.6463C15.3678 30.3411 15.8899 29.4576 16.4521 28.9556C11.9943 28.4536 7.31565 26.7267 7.31565 19.0762C7.31565 16.8473 8.0787 15.0601 9.38391 13.6344C9.18311 13.1324 8.4803 11.0441 9.58471 8.33327C9.58471 8.33327 11.2714 7.7911 15.1068 10.3814C16.6931 9.93968 18.42 9.7188 20.1268 9.7188C21.8336 9.7188 23.5605 9.93968 25.1468 10.3814C28.9822 7.7911 30.6689 8.33327 30.6689 8.33327C31.7733 11.0441 31.0705 13.1324 30.8697 13.6344C32.1749 15.0601 32.9379 16.8473 32.9379 19.0762C32.9379 26.7468 28.2392 28.4335 23.7613 28.9355C24.4842 29.558 25.1468 30.7829 25.1468 32.6504V38.1523C25.1468 38.6945 25.4681 39.337 26.4922 39.1563C34.464 36.4656 40.207 28.9556 40.207 20.0802C40.207 17.4432 39.6876 14.8321 38.6785 12.3958C37.6693 9.95958 36.1902 7.74596 34.3256 5.88134C32.461 4.01673 30.2474 2.53763 27.8111 1.52851C25.3749 0.519389 22.7638 0 20.1268 0V0Z" fill="white"/>
</g>
</svg>
