<svg width="41" height="41" viewBox="0 0 41 41" fill="none" xmlns="http://www.w3.org/2000/svg">
<g style="mix-blend-mode:difference">
<path d="M40.8361 12.4634C40.8114 10.7643 40.4967 9.07869 39.8941 7.48958C38.8397 4.77598 36.6926 2.63024 33.9745 1.57981C32.403 0.989506 30.7415 0.673032 29.0599 0.63712C26.897 0.540606 26.2113 0.513672 20.7211 0.513672C15.2309 0.513672 14.5272 0.513672 12.3802 0.63712C10.7007 0.673032 9.03928 0.989506 7.46776 1.57981C4.74963 2.63024 2.60032 4.77598 1.54814 7.48958C0.956851 9.05849 0.637601 10.7172 0.606126 12.3938C0.509452 14.5553 0.480225 15.2398 0.480225 20.7209C0.480225 26.202 0.480225 26.9023 0.606126 29.048C0.63985 30.7269 0.956851 32.3833 1.54814 33.9567C2.60256 36.6681 4.74963 38.8138 7.47 39.8643C9.03478 40.4748 10.6962 40.8204 12.3824 40.8743C14.5475 40.9708 15.2332 41 20.7234 41C26.2136 41 26.9173 41 29.0644 40.8743C30.7438 40.8406 32.4052 40.5242 33.979 39.9338C36.6971 38.8812 38.8442 36.7354 39.8986 34.0241C40.4899 32.4529 40.8069 30.7965 40.8406 29.1154C40.9373 26.9561 40.9665 26.2716 40.9665 20.7883C40.962 15.3072 40.962 14.6114 40.8361 12.4634V12.4634ZM20.7076 31.086C14.9656 31.086 10.314 26.4422 10.314 20.7097C10.314 14.9772 14.9656 10.3334 20.7076 10.3334C26.4452 10.3334 31.1013 14.9772 31.1013 20.7097C31.1013 26.4422 26.4452 31.086 20.7076 31.086ZM31.5149 12.3691C30.1727 12.3691 29.0913 11.2873 29.0913 9.94956C29.0913 8.61183 30.1727 7.52998 31.5149 7.52998C32.8526 7.52998 33.9363 8.61183 33.9363 9.94956C33.9363 11.2873 32.8526 12.3691 31.5149 12.3691Z" fill="white"/>
<path d="M20.7233 27.9014C24.6692 27.9014 27.868 24.7026 27.868 20.7567C27.868 16.8109 24.6692 13.6121 20.7233 13.6121C16.7774 13.6121 13.5787 16.8109 13.5787 20.7567C13.5787 24.7026 16.7774 27.9014 20.7233 27.9014Z" fill="white"/>
</g>
</svg>
