<svg width="39" height="39" viewBox="0 0 39 39" fill="none" xmlns="http://www.w3.org/2000/svg">
<path d="M35.4049 0.513672H2.82264C1.26448 0.513672 0 1.74841 0 3.26887V35.9918C0 37.5144 1.26448 38.7507 2.82264 38.7507H35.4049C36.9641 38.7507 38.2371 37.5144 38.2371 35.9918V3.26887C38.2371 1.74841 36.9641 0.513672 35.4049 0.513672V0.513672ZM11.3405 33.097H5.66652V14.8499H11.3405V33.097ZM8.5035 12.355C6.68565 12.355 5.21617 10.8818 5.21617 9.0655C5.21617 7.25189 6.68565 5.7787 8.5035 5.7787C10.3171 5.7787 11.7903 7.25189 11.7903 9.0655C11.7903 10.8818 10.3171 12.355 8.5035 12.355ZM32.5812 33.097H26.9162V24.2238C26.9162 22.107 26.8748 19.3853 23.9683 19.3853C21.0166 19.3853 20.5668 21.6906 20.5668 24.0704V33.0975H14.8976V14.8499H20.3384V17.3417H20.4159C21.1732 15.9078 23.0235 14.3948 25.7829 14.3948C31.5217 14.3948 32.5817 18.1728 32.5817 23.0879V33.097H32.5812Z" fill="white"/>
</svg>
