<svg width="16" height="18" viewBox="0 0 16 18" fill="none" xmlns="http://www.w3.org/2000/svg">
<path d="M11.7885 8.60146H12.2874L12.2225 9.21094H11.7254L11.7885 8.60146ZM16 5.1823V12.8177C15.9831 13.2999 15.7379 13.731 15.3072 14.0174L8.69281 17.835C8.31179 18.055 7.68821 18.055 7.30719 17.835L0.69281 14.0174C0.291374 13.7542 0.0296437 13.33 0 12.8177V5.1823C0 4.74243 0.311736 4.20256 0.69281 3.98264L7.30719 0.16497C7.68821 -0.0549901 8.31179 -0.0549901 8.69281 0.16497L15.3072 3.98264C15.7073 4.25267 15.9845 4.71948 16 5.1823ZM12.6188 11.6674L10.3106 10.3322C8.77097 12.7961 5.37062 11.5921 5.33333 9.00002C5.4575 6.18758 8.91714 5.36379 10.3105 7.6677L12.6186 6.33245C9.61058 1.4949 2.63533 3.79378 2.66667 9.00002C2.80036 14.6128 9.96782 16.268 12.6188 11.6674ZM13.1698 8.17706H12.7741L12.8454 7.48828H12.4058L12.3325 8.17706H11.8325L11.9038 7.48828H11.4642L11.3909 8.17706H10.9719V8.60146H11.3458L11.2809 9.21094H10.8488V9.63534H11.2358L11.1556 10.3887H11.6035L11.6815 9.63534H12.1774L12.0972 10.3887H12.5451L12.6231 9.63534H13.0467V9.21094H12.667L12.7301 8.60146H13.1698V8.17706Z" fill="#FFF7F7"/>
</svg>
