<svg width="45" height="33" viewBox="0 0 45 33" fill="none" xmlns="http://www.w3.org/2000/svg">
<path d="M41.8568 15.9869C40.1729 8.37441 37.6753 3.51842 33.6723 2.33508C32.897 2.10892 32.0931 1.9961 31.2855 2.00012C28.8245 2.00012 26.8825 3.46442 22.4997 3.46442C18.1168 3.46442 16.1711 2.00012 13.7139 2.00012C12.8726 1.99577 12.0348 2.1085 11.2246 2.33508C7.21603 3.51842 4.73953 8.37899 3.03636 15.9869C1.2975 23.7578 1.61233 29.8978 5.01134 31.0766C7.39083 31.9002 9.51864 30.1971 11.5339 27.6904C13.8219 24.835 16.6397 23.9564 22.4997 23.9564C28.3596 23.9564 31.0677 24.835 33.3593 27.6904C35.3727 30.1989 37.5792 31.881 39.8956 31.0912C43.6497 29.809 43.5966 23.8493 41.8568 15.9869Z" stroke="white" stroke-width="3" stroke-miterlimit="10"/>
<path d="M13.7138 9.32162V18.1074" stroke="white" stroke-width="3" stroke-linecap="round" stroke-linejoin="round"/>
<path d="M18.1067 13.7145H9.32093" stroke="white" stroke-width="3" stroke-linecap="round" stroke-linejoin="round"/>
</svg>
