<svg width="15" height="13" viewBox="0 0 15 13" fill="none" xmlns="http://www.w3.org/2000/svg">
<path d="M4.06943 0.301597H7.02738L11.1534 13H8.66665L7.51713 9.4014H3.48538L2.39252 13H0L4.06943 0.301597ZM4.84182 4.52172L3.86226 7.64959H7.1218L6.12306 4.52172C5.87824 3.74951 5.6709 2.88266 5.48274 2.14788H5.44488C5.25638 2.88266 5.06801 3.76814 4.84182 4.52172ZM11.9252 1.26235C11.9252 0.546411 12.4526 0 13.2251 0C14.0163 0 14.5063 0.546411 14.5251 1.26235C14.5251 1.95954 14.0163 2.50595 13.2062 2.50595C12.4338 2.50595 11.9252 1.95954 11.9252 1.26235V1.26235ZM12.0569 13V3.82479H14.3934V13H12.0569Z" fill="white"/>
</svg>
