<svg width="16" height="16" viewBox="0 0 16 16" fill="none" xmlns="http://www.w3.org/2000/svg">
<path d="M10.8 4.80008C10.1187 4.79774 9.44363 4.92976 8.81342 5.18859C8.18321 5.44742 7.61022 5.82797 7.12724 6.30848C6.64426 6.78898 6.26076 7.36001 5.9987 7.98888C5.73663 8.61775 5.60114 9.29212 5.59998 9.97341V15.2001C5.59998 15.4123 5.68426 15.6157 5.83429 15.7658C5.98432 15.9158 6.1878 16.0001 6.39998 16.0001H8.26664C8.47882 16.0001 8.6823 15.9158 8.83233 15.7658C8.98236 15.6157 9.06664 15.4123 9.06664 15.2001V9.97341C9.06647 9.7311 9.11736 9.49148 9.216 9.27015C9.31465 9.04883 9.45883 8.85078 9.63914 8.68892C9.81946 8.52705 10.0319 8.405 10.2625 8.33073C10.4932 8.25646 10.7369 8.23163 10.9778 8.25786C11.4098 8.31227 11.8068 8.52334 12.0935 8.85102C12.3802 9.17871 12.5367 9.60023 12.5333 10.0356V15.2001C12.5333 15.4123 12.6176 15.6157 12.7676 15.7658C12.9177 15.9158 13.1211 16.0001 13.3333 16.0001H15.2C15.4121 16.0001 15.6156 15.9158 15.7657 15.7658C15.9157 15.6157 16 15.4123 16 15.2001V9.97341C15.9988 9.29212 15.8633 8.61775 15.6013 7.98888C15.3392 7.36001 14.9557 6.78898 14.4727 6.30848C13.9897 5.82797 13.4167 5.44742 12.7865 5.18859C12.1563 4.92976 11.4813 4.79774 10.8 4.80008Z" fill="white"/>
<path d="M3.2 5.6001H0.8C0.358172 5.6001 0 5.95827 0 6.4001V15.2001C0 15.6419 0.358172 16.0001 0.8 16.0001H3.2C3.64183 16.0001 4 15.6419 4 15.2001V6.4001C4 5.95827 3.64183 5.6001 3.2 5.6001Z" fill="white"/>
<path d="M2 4C3.10457 4 4 3.10457 4 2C4 0.89543 3.10457 0 2 0C0.89543 0 0 0.89543 0 2C0 3.10457 0.89543 4 2 4Z" fill="white"/>
</svg>
