<svg width="17" height="18" viewBox="0 0 17 18" fill="none" xmlns="http://www.w3.org/2000/svg">
<path d="M6.94553 10.9609C7.23955 11.2609 7.59049 11.4993 7.97781 11.6621C8.36512 11.8248 8.78101 11.9087 9.20113 11.9087C9.62125 11.9087 10.0371 11.8248 10.4245 11.6621C10.8118 11.4993 11.1627 11.2609 11.4567 10.9609L15.0657 7.35188C15.6639 6.75366 16 5.94229 16 5.09628C16 4.25026 15.6639 3.4389 15.0657 2.84067C14.4675 2.24245 13.6561 1.90637 12.8101 1.90637C11.9641 1.90637 11.1527 2.24245 10.5545 2.84067L10.1034 3.29179" stroke="white" stroke-width="2" stroke-linecap="round" stroke-linejoin="round"/>
<path d="M10.5545 7.35187C10.2605 7.05178 9.90951 6.81338 9.5222 6.65063C9.13489 6.48788 8.71899 6.40405 8.29887 6.40405C7.87876 6.40405 7.46286 6.48788 7.07555 6.65063C6.68824 6.81338 6.33729 7.05178 6.04327 7.35187L2.4343 10.9608C1.83608 11.5591 1.5 12.3704 1.5 13.2164C1.5 14.0625 1.83608 14.8738 2.4343 15.472C3.03253 16.0703 3.84389 16.4063 4.68991 16.4063C5.53592 16.4063 6.34729 16.0703 6.94551 15.472L7.39663 15.0209" stroke="white" stroke-width="2" stroke-linecap="round" stroke-linejoin="round"/>
</svg>
