<svg width="43" height="48" viewBox="0 0 43 48" fill="none" xmlns="http://www.w3.org/2000/svg">
<mask id="path-1-outside-1_124_82" maskUnits="userSpaceOnUse" x="0" y="0" width="43" height="48" fill="black">
<rect fill="white" width="43" height="48"/>
<path d="M37.8787 24.8638C37.6085 24.5556 37.3234 24.2466 37.0234 23.9368C37.233 23.7169 37.4357 23.4973 37.6318 23.2778C41.3322 19.128 42.894 14.9663 41.4468 12.4643C40.0592 10.0654 35.9315 9.35054 30.7639 10.3534C30.2549 10.4528 29.7487 10.5649 29.2453 10.6898C29.149 10.3582 29.0465 10.0285 28.9378 9.70076C27.1848 4.42796 24.353 0.998184 21.4586 1C18.6832 1.00127 16.0007 4.2133 14.2895 9.18223C14.1212 9.67242 13.9654 10.1667 13.8223 10.6651C13.4857 10.5826 13.1478 10.5065 12.8084 10.4367C7.35621 9.31938 2.96482 10.0552 1.52051 12.5586C0.135573 14.9593 1.58395 18.8832 5.04277 22.8445C5.3858 23.2364 5.73854 23.6196 6.10099 23.9939C5.67371 24.4332 5.26911 24.8723 4.892 25.3088C1.517 29.2142 0.151451 33.074 1.53415 35.4643C2.96215 37.9332 7.29173 38.7403 12.5615 37.7053C12.9886 37.6208 13.4133 37.5257 13.8357 37.4201C13.9904 37.9591 14.1601 38.4935 14.3448 39.0232C16.0485 43.8924 18.7159 47.001 21.4815 47C24.3376 46.9983 27.2008 43.6584 28.9355 38.5849C29.0725 38.184 29.2022 37.7676 29.3251 37.3389C29.8707 37.4744 30.4198 37.5946 30.9724 37.6995C36.0498 38.6583 40.0805 37.9042 41.4607 35.5122C42.8859 33.0414 41.4164 28.8974 37.8787 24.8638ZM3.22664 13.5392C4.11581 11.9982 7.70461 11.397 12.4121 12.3616C12.7129 12.4233 13.0189 12.4923 13.3301 12.5686C12.8705 14.5978 12.5462 16.6552 12.3594 18.7272C10.6608 19.9199 9.04136 21.221 7.5112 22.6225C7.17407 22.2745 6.84594 21.9181 6.52681 21.5532L6.52695 21.5534C3.56336 18.1593 2.39202 14.9858 3.22664 13.5392ZM12.183 26.7138C11.0065 25.8246 9.91305 24.9137 8.92065 23.9975C9.91236 23.087 11.0065 22.1791 12.1806 21.2923C12.1383 22.1957 12.1174 23.0997 12.1179 24.0045C12.1185 24.9079 12.1402 25.811 12.183 26.7138ZM12.1816 35.7771C10.1843 36.2204 8.12231 36.293 6.09868 35.9914C5.54394 35.9482 5.00395 35.792 4.51208 35.5324C4.02021 35.2728 3.58691 34.9152 3.23895 34.4818C2.39999 33.0313 3.49649 29.9325 6.38286 26.5923C6.74574 26.1737 7.12052 25.7661 7.50719 25.3693C9.03759 26.7782 10.6597 28.0844 12.3628 29.2795C12.5522 31.378 12.8803 33.4617 13.3449 35.5171C12.9594 35.6133 12.5716 35.7 12.1816 35.7771ZM28.5453 17.2867C27.7724 16.8006 26.99 16.3301 26.198 15.8753C25.4187 15.4275 24.63 14.9966 23.8319 14.5825C25.1984 14.0091 26.5416 13.5193 27.8384 13.1202C28.1441 14.4962 28.38 15.8868 28.5453 17.2867ZM16.1515 9.82096C17.6176 5.56335 19.7869 2.96576 21.4597 2.96505C23.2411 2.9642 25.5558 5.76704 27.0693 10.3196C27.1676 10.6164 27.2605 10.9148 27.3481 11.2149C25.3597 11.8305 23.4142 12.5767 21.5246 13.4487C19.6427 12.5664 17.7034 11.8119 15.7198 11.1902C15.8524 10.7303 15.9963 10.2739 16.1515 9.82096ZM15.2289 13.0957C16.5815 13.5207 17.9118 14.0135 19.2147 14.5723C17.6003 15.4038 16.0277 16.3095 14.4968 17.2895C14.6817 15.8221 14.9278 14.4162 15.2289 13.0957ZM14.5002 30.7152C15.2636 31.203 16.0382 31.6727 16.824 32.1245C17.6255 32.585 18.4377 33.0263 19.2605 33.4482C17.9477 34.0263 16.606 34.5368 15.2407 34.9775C14.9362 33.6387 14.6874 32.2081 14.5002 30.7152ZM27.0721 37.9498C26.4591 39.8982 25.492 41.7173 24.2191 43.3163L24.219 43.3164C23.9044 43.7744 23.4991 44.1632 23.0281 44.4587C22.557 44.7542 22.0303 44.9502 21.4804 45.0345C19.8023 45.0355 17.6605 42.539 16.2036 38.375C16.032 37.8827 15.8741 37.3859 15.73 36.8846C17.7231 36.2429 19.6703 35.467 21.5582 34.5623C23.4634 35.4399 25.4243 36.1917 27.4283 36.8129C27.3188 37.1946 27.2001 37.5736 27.0721 37.9498ZM27.9069 34.9041C26.5952 34.4993 25.2325 34.0013 23.8462 33.4195C24.6277 33.009 25.4148 32.5755 26.2076 32.119C27.0211 31.6501 27.8139 31.1695 28.5859 30.6771C28.4321 32.0968 28.2055 33.5077 27.9069 34.9042V34.9041ZM28.9353 23.996C28.937 25.3928 28.8933 26.7885 28.8042 28.183C27.6689 28.9499 26.4703 29.6987 25.2232 30.4173C23.9813 31.1329 22.7508 31.7906 21.5437 32.3858C20.2735 31.7783 19.0278 31.1235 17.8066 30.4217C16.5922 29.724 15.4057 28.9811 14.247 28.193C14.1411 26.7988 14.0878 25.4022 14.087 24.003L14.0873 24.0035C14.0863 22.6053 14.1385 21.2085 14.2438 19.8132C15.3788 19.0396 16.5687 18.2914 17.799 17.5824C19.0348 16.8702 20.2808 16.2153 21.5198 15.6217C22.7744 16.2303 24.0063 16.8825 25.2156 17.5782C26.4291 18.2744 27.619 19.0094 28.7851 19.7832C28.8853 21.1853 28.9354 22.5896 28.9354 23.996H28.9353ZM31.14 12.2825C35.5674 11.423 38.9057 12.0012 39.742 13.4468C40.6329 14.987 39.3561 18.3884 36.1614 21.9714L36.1612 21.9716C35.9847 22.1692 35.8016 22.3677 35.6119 22.5671C34.0552 21.1626 32.4046 19.8656 30.6714 18.685C30.4965 16.6356 30.1843 14.6002 29.737 12.5925C30.2138 12.4754 30.6814 12.3721 31.14 12.2825ZM30.8407 21.2173C32.0097 22.0693 33.1338 22.9812 34.2082 23.9493C33.1385 24.9334 32.018 25.8611 30.8514 26.7284C30.8871 25.8178 30.9046 24.9067 30.9041 23.9951C30.9037 23.069 30.8825 22.143 30.8407 21.2173ZM39.7542 34.5314C38.9167 35.9831 35.6804 36.5884 31.3381 35.7684C30.8405 35.6747 30.3299 35.5631 29.8063 35.4336C30.2428 33.4 30.5411 31.3393 30.6992 29.2656C32.4295 28.0644 34.0749 26.7458 35.6238 25.3191C35.8949 25.6001 36.1527 25.8799 36.3972 26.1583V26.1581C37.7823 27.6613 38.8783 29.4061 39.6305 31.3053C39.871 31.8061 40.0061 32.3507 40.0274 32.9056C40.0486 33.4605 39.9557 34.0138 39.7542 34.5314ZM19.4328 20.4072C18.7279 20.8134 18.1595 21.4191 17.7995 22.1477C17.4395 22.8764 17.304 23.6952 17.4103 24.5007C17.5166 25.3061 17.8597 26.0621 18.3964 26.6729C18.9331 27.2837 19.6392 27.7219 20.4255 27.9322C21.2117 28.1424 22.0428 28.1152 22.8135 27.8541C23.5843 27.5929 24.2602 27.1095 24.7557 26.4649C25.2511 25.8204 25.544 25.0436 25.5972 24.2329C25.6504 23.4223 25.4615 22.614 25.0545 21.9105C24.5087 20.9671 23.6098 20.2788 22.5556 19.9969C21.5014 19.715 20.3781 19.8626 19.4329 20.4072L19.4328 20.4072Z"/>
</mask>
<path d="M37.8787 24.8638C37.6085 24.5556 37.3234 24.2466 37.0234 23.9368C37.233 23.7169 37.4357 23.4973 37.6318 23.2778C41.3322 19.128 42.894 14.9663 41.4468 12.4643C40.0592 10.0654 35.9315 9.35054 30.7639 10.3534C30.2549 10.4528 29.7487 10.5649 29.2453 10.6898C29.149 10.3582 29.0465 10.0285 28.9378 9.70076C27.1848 4.42796 24.353 0.998184 21.4586 1C18.6832 1.00127 16.0007 4.2133 14.2895 9.18223C14.1212 9.67242 13.9654 10.1667 13.8223 10.6651C13.4857 10.5826 13.1478 10.5065 12.8084 10.4367C7.35621 9.31938 2.96482 10.0552 1.52051 12.5586C0.135573 14.9593 1.58395 18.8832 5.04277 22.8445C5.3858 23.2364 5.73854 23.6196 6.10099 23.9939C5.67371 24.4332 5.26911 24.8723 4.892 25.3088C1.517 29.2142 0.151451 33.074 1.53415 35.4643C2.96215 37.9332 7.29173 38.7403 12.5615 37.7053C12.9886 37.6208 13.4133 37.5257 13.8357 37.4201C13.9904 37.9591 14.1601 38.4935 14.3448 39.0232C16.0485 43.8924 18.7159 47.001 21.4815 47C24.3376 46.9983 27.2008 43.6584 28.9355 38.5849C29.0725 38.184 29.2022 37.7676 29.3251 37.3389C29.8707 37.4744 30.4198 37.5946 30.9724 37.6995C36.0498 38.6583 40.0805 37.9042 41.4607 35.5122C42.8859 33.0414 41.4164 28.8974 37.8787 24.8638ZM3.22664 13.5392C4.11581 11.9982 7.70461 11.397 12.4121 12.3616C12.7129 12.4233 13.0189 12.4923 13.3301 12.5686C12.8705 14.5978 12.5462 16.6552 12.3594 18.7272C10.6608 19.9199 9.04136 21.221 7.5112 22.6225C7.17407 22.2745 6.84594 21.9181 6.52681 21.5532L6.52695 21.5534C3.56336 18.1593 2.39202 14.9858 3.22664 13.5392ZM12.183 26.7138C11.0065 25.8246 9.91305 24.9137 8.92065 23.9975C9.91236 23.087 11.0065 22.1791 12.1806 21.2923C12.1383 22.1957 12.1174 23.0997 12.1179 24.0045C12.1185 24.9079 12.1402 25.811 12.183 26.7138ZM12.1816 35.7771C10.1843 36.2204 8.12231 36.293 6.09868 35.9914C5.54394 35.9482 5.00395 35.792 4.51208 35.5324C4.02021 35.2728 3.58691 34.9152 3.23895 34.4818C2.39999 33.0313 3.49649 29.9325 6.38286 26.5923C6.74574 26.1737 7.12052 25.7661 7.50719 25.3693C9.03759 26.7782 10.6597 28.0844 12.3628 29.2795C12.5522 31.378 12.8803 33.4617 13.3449 35.5171C12.9594 35.6133 12.5716 35.7 12.1816 35.7771ZM28.5453 17.2867C27.7724 16.8006 26.99 16.3301 26.198 15.8753C25.4187 15.4275 24.63 14.9966 23.8319 14.5825C25.1984 14.0091 26.5416 13.5193 27.8384 13.1202C28.1441 14.4962 28.38 15.8868 28.5453 17.2867ZM16.1515 9.82096C17.6176 5.56335 19.7869 2.96576 21.4597 2.96505C23.2411 2.9642 25.5558 5.76704 27.0693 10.3196C27.1676 10.6164 27.2605 10.9148 27.3481 11.2149C25.3597 11.8305 23.4142 12.5767 21.5246 13.4487C19.6427 12.5664 17.7034 11.8119 15.7198 11.1902C15.8524 10.7303 15.9963 10.2739 16.1515 9.82096ZM15.2289 13.0957C16.5815 13.5207 17.9118 14.0135 19.2147 14.5723C17.6003 15.4038 16.0277 16.3095 14.4968 17.2895C14.6817 15.8221 14.9278 14.4162 15.2289 13.0957ZM14.5002 30.7152C15.2636 31.203 16.0382 31.6727 16.824 32.1245C17.6255 32.585 18.4377 33.0263 19.2605 33.4482C17.9477 34.0263 16.606 34.5368 15.2407 34.9775C14.9362 33.6387 14.6874 32.2081 14.5002 30.7152ZM27.0721 37.9498C26.4591 39.8982 25.492 41.7173 24.2191 43.3163L24.219 43.3164C23.9044 43.7744 23.4991 44.1632 23.0281 44.4587C22.557 44.7542 22.0303 44.9502 21.4804 45.0345C19.8023 45.0355 17.6605 42.539 16.2036 38.375C16.032 37.8827 15.8741 37.3859 15.73 36.8846C17.7231 36.2429 19.6703 35.467 21.5582 34.5623C23.4634 35.4399 25.4243 36.1917 27.4283 36.8129C27.3188 37.1946 27.2001 37.5736 27.0721 37.9498ZM27.9069 34.9041C26.5952 34.4993 25.2325 34.0013 23.8462 33.4195C24.6277 33.009 25.4148 32.5755 26.2076 32.119C27.0211 31.6501 27.8139 31.1695 28.5859 30.6771C28.4321 32.0968 28.2055 33.5077 27.9069 34.9042V34.9041ZM28.9353 23.996C28.937 25.3928 28.8933 26.7885 28.8042 28.183C27.6689 28.9499 26.4703 29.6987 25.2232 30.4173C23.9813 31.1329 22.7508 31.7906 21.5437 32.3858C20.2735 31.7783 19.0278 31.1235 17.8066 30.4217C16.5922 29.724 15.4057 28.9811 14.247 28.193C14.1411 26.7988 14.0878 25.4022 14.087 24.003L14.0873 24.0035C14.0863 22.6053 14.1385 21.2085 14.2438 19.8132C15.3788 19.0396 16.5687 18.2914 17.799 17.5824C19.0348 16.8702 20.2808 16.2153 21.5198 15.6217C22.7744 16.2303 24.0063 16.8825 25.2156 17.5782C26.4291 18.2744 27.619 19.0094 28.7851 19.7832C28.8853 21.1853 28.9354 22.5896 28.9354 23.996H28.9353ZM31.14 12.2825C35.5674 11.423 38.9057 12.0012 39.742 13.4468C40.6329 14.987 39.3561 18.3884 36.1614 21.9714L36.1612 21.9716C35.9847 22.1692 35.8016 22.3677 35.6119 22.5671C34.0552 21.1626 32.4046 19.8656 30.6714 18.685C30.4965 16.6356 30.1843 14.6002 29.737 12.5925C30.2138 12.4754 30.6814 12.3721 31.14 12.2825ZM30.8407 21.2173C32.0097 22.0693 33.1338 22.9812 34.2082 23.9493C33.1385 24.9334 32.018 25.8611 30.8514 26.7284C30.8871 25.8178 30.9046 24.9067 30.9041 23.9951C30.9037 23.069 30.8825 22.143 30.8407 21.2173ZM39.7542 34.5314C38.9167 35.9831 35.6804 36.5884 31.3381 35.7684C30.8405 35.6747 30.3299 35.5631 29.8063 35.4336C30.2428 33.4 30.5411 31.3393 30.6992 29.2656C32.4295 28.0644 34.0749 26.7458 35.6238 25.3191C35.8949 25.6001 36.1527 25.8799 36.3972 26.1583V26.1581C37.7823 27.6613 38.8783 29.4061 39.6305 31.3053C39.871 31.8061 40.0061 32.3507 40.0274 32.9056C40.0486 33.4605 39.9557 34.0138 39.7542 34.5314ZM19.4328 20.4072C18.7279 20.8134 18.1595 21.4191 17.7995 22.1477C17.4395 22.8764 17.304 23.6952 17.4103 24.5007C17.5166 25.3061 17.8597 26.0621 18.3964 26.6729C18.9331 27.2837 19.6392 27.7219 20.4255 27.9322C21.2117 28.1424 22.0428 28.1152 22.8135 27.8541C23.5843 27.5929 24.2602 27.1095 24.7557 26.4649C25.2511 25.8204 25.544 25.0436 25.5972 24.2329C25.6504 23.4223 25.4615 22.614 25.0545 21.9105C24.5087 20.9671 23.6098 20.2788 22.5556 19.9969C21.5014 19.715 20.3781 19.8626 19.4329 20.4072L19.4328 20.4072Z" fill="white"/>
<path d="M37.8787 24.8638C37.6085 24.5556 37.3234 24.2466 37.0234 23.9368C37.233 23.7169 37.4357 23.4973 37.6318 23.2778C41.3322 19.128 42.894 14.9663 41.4468 12.4643C40.0592 10.0654 35.9315 9.35054 30.7639 10.3534C30.2549 10.4528 29.7487 10.5649 29.2453 10.6898C29.149 10.3582 29.0465 10.0285 28.9378 9.70076C27.1848 4.42796 24.353 0.998184 21.4586 1C18.6832 1.00127 16.0007 4.2133 14.2895 9.18223C14.1212 9.67242 13.9654 10.1667 13.8223 10.6651C13.4857 10.5826 13.1478 10.5065 12.8084 10.4367C7.35621 9.31938 2.96482 10.0552 1.52051 12.5586C0.135573 14.9593 1.58395 18.8832 5.04277 22.8445C5.3858 23.2364 5.73854 23.6196 6.10099 23.9939C5.67371 24.4332 5.26911 24.8723 4.892 25.3088C1.517 29.2142 0.151451 33.074 1.53415 35.4643C2.96215 37.9332 7.29173 38.7403 12.5615 37.7053C12.9886 37.6208 13.4133 37.5257 13.8357 37.4201C13.9904 37.9591 14.1601 38.4935 14.3448 39.0232C16.0485 43.8924 18.7159 47.001 21.4815 47C24.3376 46.9983 27.2008 43.6584 28.9355 38.5849C29.0725 38.184 29.2022 37.7676 29.3251 37.3389C29.8707 37.4744 30.4198 37.5946 30.9724 37.6995C36.0498 38.6583 40.0805 37.9042 41.4607 35.5122C42.8859 33.0414 41.4164 28.8974 37.8787 24.8638ZM3.22664 13.5392C4.11581 11.9982 7.70461 11.397 12.4121 12.3616C12.7129 12.4233 13.0189 12.4923 13.3301 12.5686C12.8705 14.5978 12.5462 16.6552 12.3594 18.7272C10.6608 19.9199 9.04136 21.221 7.5112 22.6225C7.17407 22.2745 6.84594 21.9181 6.52681 21.5532L6.52695 21.5534C3.56336 18.1593 2.39202 14.9858 3.22664 13.5392ZM12.183 26.7138C11.0065 25.8246 9.91305 24.9137 8.92065 23.9975C9.91236 23.087 11.0065 22.1791 12.1806 21.2923C12.1383 22.1957 12.1174 23.0997 12.1179 24.0045C12.1185 24.9079 12.1402 25.811 12.183 26.7138ZM12.1816 35.7771C10.1843 36.2204 8.12231 36.293 6.09868 35.9914C5.54394 35.9482 5.00395 35.792 4.51208 35.5324C4.02021 35.2728 3.58691 34.9152 3.23895 34.4818C2.39999 33.0313 3.49649 29.9325 6.38286 26.5923C6.74574 26.1737 7.12052 25.7661 7.50719 25.3693C9.03759 26.7782 10.6597 28.0844 12.3628 29.2795C12.5522 31.378 12.8803 33.4617 13.3449 35.5171C12.9594 35.6133 12.5716 35.7 12.1816 35.7771ZM28.5453 17.2867C27.7724 16.8006 26.99 16.3301 26.198 15.8753C25.4187 15.4275 24.63 14.9966 23.8319 14.5825C25.1984 14.0091 26.5416 13.5193 27.8384 13.1202C28.1441 14.4962 28.38 15.8868 28.5453 17.2867ZM16.1515 9.82096C17.6176 5.56335 19.7869 2.96576 21.4597 2.96505C23.2411 2.9642 25.5558 5.76704 27.0693 10.3196C27.1676 10.6164 27.2605 10.9148 27.3481 11.2149C25.3597 11.8305 23.4142 12.5767 21.5246 13.4487C19.6427 12.5664 17.7034 11.8119 15.7198 11.1902C15.8524 10.7303 15.9963 10.2739 16.1515 9.82096ZM15.2289 13.0957C16.5815 13.5207 17.9118 14.0135 19.2147 14.5723C17.6003 15.4038 16.0277 16.3095 14.4968 17.2895C14.6817 15.8221 14.9278 14.4162 15.2289 13.0957ZM14.5002 30.7152C15.2636 31.203 16.0382 31.6727 16.824 32.1245C17.6255 32.585 18.4377 33.0263 19.2605 33.4482C17.9477 34.0263 16.606 34.5368 15.2407 34.9775C14.9362 33.6387 14.6874 32.2081 14.5002 30.7152ZM27.0721 37.9498C26.4591 39.8982 25.492 41.7173 24.2191 43.3163L24.219 43.3164C23.9044 43.7744 23.4991 44.1632 23.0281 44.4587C22.557 44.7542 22.0303 44.9502 21.4804 45.0345C19.8023 45.0355 17.6605 42.539 16.2036 38.375C16.032 37.8827 15.8741 37.3859 15.73 36.8846C17.7231 36.2429 19.6703 35.467 21.5582 34.5623C23.4634 35.4399 25.4243 36.1917 27.4283 36.8129C27.3188 37.1946 27.2001 37.5736 27.0721 37.9498ZM27.9069 34.9041C26.5952 34.4993 25.2325 34.0013 23.8462 33.4195C24.6277 33.009 25.4148 32.5755 26.2076 32.119C27.0211 31.6501 27.8139 31.1695 28.5859 30.6771C28.4321 32.0968 28.2055 33.5077 27.9069 34.9042V34.9041ZM28.9353 23.996C28.937 25.3928 28.8933 26.7885 28.8042 28.183C27.6689 28.9499 26.4703 29.6987 25.2232 30.4173C23.9813 31.1329 22.7508 31.7906 21.5437 32.3858C20.2735 31.7783 19.0278 31.1235 17.8066 30.4217C16.5922 29.724 15.4057 28.9811 14.247 28.193C14.1411 26.7988 14.0878 25.4022 14.087 24.003L14.0873 24.0035C14.0863 22.6053 14.1385 21.2085 14.2438 19.8132C15.3788 19.0396 16.5687 18.2914 17.799 17.5824C19.0348 16.8702 20.2808 16.2153 21.5198 15.6217C22.7744 16.2303 24.0063 16.8825 25.2156 17.5782C26.4291 18.2744 27.619 19.0094 28.7851 19.7832C28.8853 21.1853 28.9354 22.5896 28.9354 23.996H28.9353ZM31.14 12.2825C35.5674 11.423 38.9057 12.0012 39.742 13.4468C40.6329 14.987 39.3561 18.3884 36.1614 21.9714L36.1612 21.9716C35.9847 22.1692 35.8016 22.3677 35.6119 22.5671C34.0552 21.1626 32.4046 19.8656 30.6714 18.685C30.4965 16.6356 30.1843 14.6002 29.737 12.5925C30.2138 12.4754 30.6814 12.3721 31.14 12.2825ZM30.8407 21.2173C32.0097 22.0693 33.1338 22.9812 34.2082 23.9493C33.1385 24.9334 32.018 25.8611 30.8514 26.7284C30.8871 25.8178 30.9046 24.9067 30.9041 23.9951C30.9037 23.069 30.8825 22.143 30.8407 21.2173ZM39.7542 34.5314C38.9167 35.9831 35.6804 36.5884 31.3381 35.7684C30.8405 35.6747 30.3299 35.5631 29.8063 35.4336C30.2428 33.4 30.5411 31.3393 30.6992 29.2656C32.4295 28.0644 34.0749 26.7458 35.6238 25.3191C35.8949 25.6001 36.1527 25.8799 36.3972 26.1583V26.1581C37.7823 27.6613 38.8783 29.4061 39.6305 31.3053C39.871 31.8061 40.0061 32.3507 40.0274 32.9056C40.0486 33.4605 39.9557 34.0138 39.7542 34.5314ZM19.4328 20.4072C18.7279 20.8134 18.1595 21.4191 17.7995 22.1477C17.4395 22.8764 17.304 23.6952 17.4103 24.5007C17.5166 25.3061 17.8597 26.0621 18.3964 26.6729C18.9331 27.2837 19.6392 27.7219 20.4255 27.9322C21.2117 28.1424 22.0428 28.1152 22.8135 27.8541C23.5843 27.5929 24.2602 27.1095 24.7557 26.4649C25.2511 25.8204 25.544 25.0436 25.5972 24.2329C25.6504 23.4223 25.4615 22.614 25.0545 21.9105C24.5087 20.9671 23.6098 20.2788 22.5556 19.9969C21.5014 19.715 20.3781 19.8626 19.4329 20.4072L19.4328 20.4072Z" stroke="white" stroke-width="0.4" mask="url(#path-1-outside-1_124_82)"/>
</svg>
