<svg width="39" height="35" viewBox="0 0 39 35" fill="none" xmlns="http://www.w3.org/2000/svg">
<path d="M15.6111 25.25H5.88889C4.85749 25.25 3.86834 24.8417 3.13903 24.115C2.40972 23.3883 2 22.4027 2 21.375V5.875C2 4.84729 2.40972 3.86166 3.13903 3.13496C3.86834 2.40826 4.85749 2 5.88889 2H33.1111C34.1425 2 35.1317 2.40826 35.861 3.13496C36.5903 3.86166 37 4.84729 37 5.875V21.375C37 22.4027 36.5903 23.3883 35.861 24.115C35.1317 24.8417 34.1425 25.25 33.1111 25.25H23.3889M15.6111 25.25V33M15.6111 25.25H23.3889M15.6111 33H11.7222M15.6111 33H23.3889M27.2778 33H23.3889M23.3889 25.25V33" stroke="white" stroke-width="3" stroke-linecap="round" stroke-linejoin="round"/>
</svg>
